<?xml version="1.0" encoding="UTF-8" standalone="no"?>
<svg
   xmlns:dc="http://purl.org/dc/elements/1.1/"
   xmlns:cc="http://creativecommons.org/ns#"
   xmlns:rdf="http://www.w3.org/1999/02/22-rdf-syntax-ns#"
   xmlns:svg="http://www.w3.org/2000/svg"
   xmlns="http://www.w3.org/2000/svg"
   viewBox="0 0 96.5 125.5125"
   height="125.5125"
   width="96.5"
   xml:space="preserve"
   version="1.1"
   id="svg2"><metadata
     id="metadata8"><rdf:RDF><cc:Work
         rdf:about=""><dc:format>image/svg+xml</dc:format><dc:type
           rdf:resource="http://purl.org/dc/dcmitype/StillImage" /></cc:Work></rdf:RDF></metadata><defs
     id="defs6"><clipPath
       id="clipPath12"
       clipPathUnits="userSpaceOnUse"><path
         id="path14"
         d="M 0,0 595,0 595,842 0,842 0,0 Z" /></clipPath><clipPath
       id="clipPath70"
       clipPathUnits="userSpaceOnUse"><path
         id="path72"
         d="m -1,-1 6.981,0 0,8.42 L -1,7.42 -1,-1 Z" /></clipPath><clipPath
       id="clipPath86"
       clipPathUnits="userSpaceOnUse"><path
         id="path88"
         d="m -1,-1 6.981,0 0,8.42 L -1,7.42 -1,-1 Z" /></clipPath><clipPath
       id="clipPath102"
       clipPathUnits="userSpaceOnUse"><path
         id="path104"
         d="m -1,-1 6.981,0 0,8.42 L -1,7.42 -1,-1 Z" /></clipPath><clipPath
       id="clipPath118"
       clipPathUnits="userSpaceOnUse"><path
         id="path120"
         d="m -1,-1 6.981,0 0,8.42 L -1,7.42 -1,-1 Z" /></clipPath><clipPath
       id="clipPath138"
       clipPathUnits="userSpaceOnUse"><path
         id="path140"
         d="m -1,-1 21.981,0 0,11.963 L -1,10.963 -1,-1 Z" /></clipPath><clipPath
       id="clipPath158"
       clipPathUnits="userSpaceOnUse"><path
         id="path160"
         d="m -1,-1 21.981,0 0,11.963 L -1,10.963 -1,-1 Z" /></clipPath><clipPath
       id="clipPath178"
       clipPathUnits="userSpaceOnUse"><path
         id="path180"
         d="m -1,-1 21.981,0 0,11.963 L -1,10.963 -1,-1 Z" /></clipPath></defs><g
     clip-path="url(#clipPath12)"
     transform="matrix(1.25,0,0,-1.25,-343.75,985.25)"
     id="g10"><g
       id="g16"><path
         id="path18"
         style="fill:#d3d3d3;fill-opacity:1;fill-rule:evenodd;stroke:#000000;stroke-width:0.40000001;stroke-linecap:butt;stroke-linejoin:round;stroke-miterlimit:10;stroke-dasharray:none;stroke-opacity:1"
         d="m 288,692 64,0" /></g><g
       id="g20"><path
         id="path22"
         style="fill:#d3d3d3;fill-opacity:1;fill-rule:evenodd;stroke:#000000;stroke-width:0.40000001;stroke-linecap:butt;stroke-linejoin:round;stroke-miterlimit:10;stroke-dasharray:none;stroke-opacity:1"
         d="m 288,776 64,0" /></g><g
       id="g24"><path
         id="path26"
         style="fill:#d3d3d3;fill-opacity:1;fill-rule:evenodd;stroke:#000000;stroke-width:0.40000001;stroke-linecap:butt;stroke-linejoin:round;stroke-miterlimit:10;stroke-dasharray:none;stroke-opacity:1"
         d="m 288,748 64,0" /></g><g
       id="g28"><path
         id="path30"
         style="fill:#d3d3d3;fill-opacity:1;fill-rule:evenodd;stroke:#000000;stroke-width:0.40000001;stroke-linecap:butt;stroke-linejoin:round;stroke-miterlimit:10;stroke-dasharray:none;stroke-opacity:1"
         d="m 288,720 64,0" /></g><g
       id="g32"><path
         id="path34"
         style="fill:#d3d3d3;fill-opacity:1;fill-rule:evenodd;stroke:#000000;stroke-width:0.40000001;stroke-linecap:butt;stroke-linejoin:round;stroke-miterlimit:10;stroke-dasharray:none;stroke-opacity:1"
         d="m 352,776 0,-80" /></g><g
       id="g36"><path
         id="path38"
         style="fill:#d3d3d3;fill-opacity:1;fill-rule:evenodd;stroke:#000000;stroke-width:0.40000001;stroke-linecap:butt;stroke-linejoin:round;stroke-miterlimit:10;stroke-dasharray:none;stroke-opacity:1"
         d="m 352,776 0,-84" /></g><g
       id="g40"><g
         id="g42"><path
           id="path44"
           style="fill:#000000;fill-opacity:1;fill-rule:evenodd;stroke:none"
           d="m 289.8,776 c 0,0.994 -0.806,1.8 -1.8,1.8 -0.994,0 -1.8,-0.806 -1.8,-1.8 0,-0.994 0.806,-1.8 1.8,-1.8 0.994,0 1.8,0.806 1.8,1.8" /></g></g><g
       id="g46"><g
         id="g48"><path
           id="path50"
           style="fill:#000000;fill-opacity:1;fill-rule:evenodd;stroke:none"
           d="m 289.8,748 c 0,0.994 -0.806,1.8 -1.8,1.8 -0.994,0 -1.8,-0.806 -1.8,-1.8 0,-0.994 0.806,-1.8 1.8,-1.8 0.994,0 1.8,0.806 1.8,1.8" /></g></g><g
       id="g52"><g
         id="g54"><path
           id="path56"
           style="fill:#000000;fill-opacity:1;fill-rule:evenodd;stroke:none"
           d="m 289.8,720 c 0,0.994 -0.806,1.8 -1.8,1.8 -0.994,0 -1.8,-0.806 -1.8,-1.8 0,-0.994 0.806,-1.8 1.8,-1.8 0.994,0 1.8,0.806 1.8,1.8" /></g></g><g
       id="g58"><g
         id="g60"><path
           id="path62"
           style="fill:#000000;fill-opacity:1;fill-rule:evenodd;stroke:none"
           d="m 289.8,692 c 0,0.994 -0.806,1.8 -1.8,1.8 -0.994,0 -1.8,-0.806 -1.8,-1.8 0,-0.994 0.806,-1.8 1.8,-1.8 0.994,0 1.8,0.806 1.8,1.8" /></g></g><g
       transform="translate(276,772.79)"
       id="g64"><g
         id="g66"><g
           clip-path="url(#clipPath70)"
           id="g68"><g
             transform="translate(0,-785.58)"
             id="g74"><text
               id="text76"
               style="font-variant:normal;font-weight:normal;font-size:9.96259975px;font-family:CMR10;-inkscape-font-specification:CMR10;writing-mode:lr-tb;fill:#000000;fill-opacity:1;fill-rule:nonzero;stroke:none"
               transform="matrix(1,0,0,-1,0,785.58)"><tspan
                 id="tspan78"
                 y="0"
                 x="0">1</tspan></text>
</g></g></g></g><g
       transform="translate(276,744.79)"
       id="g80"><g
         id="g82"><g
           clip-path="url(#clipPath86)"
           id="g84"><g
             transform="translate(0,-785.58)"
             id="g90"><text
               id="text92"
               style="font-variant:normal;font-weight:normal;font-size:9.96259975px;font-family:CMR10;-inkscape-font-specification:CMR10;writing-mode:lr-tb;fill:#000000;fill-opacity:1;fill-rule:nonzero;stroke:none"
               transform="matrix(1,0,0,-1,0,785.58)"><tspan
                 id="tspan94"
                 y="0"
                 x="0">2</tspan></text>
</g></g></g></g><g
       transform="translate(276,716.79)"
       id="g96"><g
         id="g98"><g
           clip-path="url(#clipPath102)"
           id="g100"><g
             transform="translate(0,-785.58)"
             id="g106"><text
               id="text108"
               style="font-variant:normal;font-weight:normal;font-size:9.96259975px;font-family:CMR10;-inkscape-font-specification:CMR10;writing-mode:lr-tb;fill:#000000;fill-opacity:1;fill-rule:nonzero;stroke:none"
               transform="matrix(1,0,0,-1,0,785.58)"><tspan
                 id="tspan110"
                 y="0"
                 x="0">3</tspan></text>
</g></g></g></g><g
       transform="translate(276,688.79)"
       id="g112"><g
         id="g114"><g
           clip-path="url(#clipPath118)"
           id="g116"><g
             transform="translate(0,-785.58)"
             id="g122"><text
               id="text124"
               style="font-variant:normal;font-weight:normal;font-size:9.96259975px;font-family:CMR10;-inkscape-font-specification:CMR10;writing-mode:lr-tb;fill:#000000;fill-opacity:1;fill-rule:nonzero;stroke:none"
               transform="matrix(1,0,0,-1,0,785.58)"><tspan
                 id="tspan126"
                 y="0"
                 x="0">4</tspan></text>
</g></g></g></g><g
       id="g128"><path
         id="path130"
         style="fill:#d3d3d3;fill-opacity:1;fill-rule:evenodd;stroke:#000000;stroke-width:0.40000001;stroke-linecap:butt;stroke-linejoin:round;stroke-miterlimit:10;stroke-dasharray:none;stroke-opacity:1"
         d="m 306,764 28,0 0,24 -28,0 0,-24 z" /></g><g
       transform="translate(310.01,771.019)"
       id="g132"><g
         id="g134"><g
           clip-path="url(#clipPath138)"
           id="g136"><g
             transform="translate(0,-782.037)"
             id="g142"><text
               id="text144"
               style="font-variant:normal;font-weight:normal;font-size:9.96259975px;font-family:CMR10;-inkscape-font-specification:CMR10;writing-mode:lr-tb;fill:#000000;fill-opacity:1;fill-rule:nonzero;stroke:none"
               transform="matrix(1,0,0,-1,0,784.528)"><tspan
                 id="tspan146"
                 y="0"
                 x="0 3.9292495 9.4644699 12.23208 17.213381">sd[1]</tspan></text>
</g></g></g></g><g
       id="g148"><path
         id="path150"
         style="fill:#d3d3d3;fill-opacity:1;fill-rule:evenodd;stroke:#000000;stroke-width:0.40000001;stroke-linecap:butt;stroke-linejoin:round;stroke-miterlimit:10;stroke-dasharray:none;stroke-opacity:1"
         d="m 306,736 28,0 0,24 -28,0 0,-24 z" /></g><g
       transform="translate(310.01,743.019)"
       id="g152"><g
         id="g154"><g
           clip-path="url(#clipPath158)"
           id="g156"><g
             transform="translate(0,-782.037)"
             id="g162"><text
               id="text164"
               style="font-variant:normal;font-weight:normal;font-size:9.96259975px;font-family:CMR10;-inkscape-font-specification:CMR10;writing-mode:lr-tb;fill:#000000;fill-opacity:1;fill-rule:nonzero;stroke:none"
               transform="matrix(1,0,0,-1,0,784.528)"><tspan
                 id="tspan166"
                 y="0"
                 x="0 3.9292495 9.4644699 12.23208 17.213381">sd[2]</tspan></text>
</g></g></g></g><g
       id="g168"><path
         id="path170"
         style="fill:#d3d3d3;fill-opacity:1;fill-rule:evenodd;stroke:#000000;stroke-width:0.40000001;stroke-linecap:butt;stroke-linejoin:round;stroke-miterlimit:10;stroke-dasharray:none;stroke-opacity:1"
         d="m 306,708 28,0 0,24 -28,0 0,-24 z" /></g><g
       transform="translate(310.01,715.019)"
       id="g172"><g
         id="g174"><g
           clip-path="url(#clipPath178)"
           id="g176"><g
             transform="translate(0,-782.037)"
             id="g182"><text
               id="text184"
               style="font-variant:normal;font-weight:normal;font-size:9.96259975px;font-family:CMR10;-inkscape-font-specification:CMR10;writing-mode:lr-tb;fill:#000000;fill-opacity:1;fill-rule:nonzero;stroke:none"
               transform="matrix(1,0,0,-1,0,784.528)"><tspan
                 id="tspan186"
                 y="0"
                 x="0 3.9292495 9.4644699 12.23208 17.213381">sd[3]</tspan></text>
</g></g></g></g></g></svg>