<?xml version="1.0" encoding="UTF-8" standalone="no"?>
<svg
   xmlns:dc="http://purl.org/dc/elements/1.1/"
   xmlns:cc="http://creativecommons.org/ns#"
   xmlns:rdf="http://www.w3.org/1999/02/22-rdf-syntax-ns#"
   xmlns:svg="http://www.w3.org/2000/svg"
   xmlns="http://www.w3.org/2000/svg"
   viewBox="0 0 76.5 110.525"
   height="110.525"
   width="76.5"
   xml:space="preserve"
   version="1.1"
   id="svg2"><metadata
     id="metadata8"><rdf:RDF><cc:Work
         rdf:about=""><dc:format>image/svg+xml</dc:format><dc:type
           rdf:resource="http://purl.org/dc/dcmitype/StillImage" /></cc:Work></rdf:RDF></metadata><defs
     id="defs6"><clipPath
       id="clipPath12"
       clipPathUnits="userSpaceOnUse"><path
         id="path14"
         d="M 0,0 595,0 595,842 0,842 0,0 Z" /></clipPath><clipPath
       id="clipPath26"
       clipPathUnits="userSpaceOnUse"><path
         id="path28"
         d="m -1,-1 21.981,0 0,11.963 L -1,10.963 -1,-1 Z" /></clipPath><clipPath
       id="clipPath62"
       clipPathUnits="userSpaceOnUse"><path
         id="path64"
         d="m -1,-1 6.981,0 0,8.42 L -1,7.42 -1,-1 Z" /></clipPath><clipPath
       id="clipPath78"
       clipPathUnits="userSpaceOnUse"><path
         id="path80"
         d="m -1,-1 6.981,0 0,8.42 L -1,7.42 -1,-1 Z" /></clipPath></defs><g
     clip-path="url(#clipPath12)"
     transform="matrix(1.25,0,0,-1.25,-283.75,965.2625)"
     id="g10"><g
       id="g16"><path
         id="path18"
         style="fill:#d3d3d3;fill-opacity:1;fill-rule:evenodd;stroke:#000000;stroke-width:0.40000001;stroke-linecap:butt;stroke-linejoin:round;stroke-miterlimit:10;stroke-dasharray:none;stroke-opacity:1"
         d="m 256,752 0,-48 32,0 0,48 -32,0 z" /></g><g
       transform="translate(262.01,723.019)"
       id="g20"><g
         id="g22"><g
           clip-path="url(#clipPath26)"
           id="g24"><g
             transform="translate(0,-782.037)"
             id="g30"><text
               id="text32"
               style="font-variant:normal;font-weight:normal;font-size:9.96259975px;font-family:CMR10;-inkscape-font-specification:CMR10;writing-mode:lr-tb;fill:#000000;fill-opacity:1;fill-rule:nonzero;stroke:none"
               transform="matrix(1,0,0,-1,0,784.528)"><tspan
                 id="tspan34"
                 y="0"
                 x="0 3.9292495 9.4644699 12.23208 17.213381">sd[1]</tspan></text>
</g></g></g></g><g
       id="g36"><path
         id="path38"
         style="fill:none;stroke:#000000;stroke-width:0.40000001;stroke-linecap:butt;stroke-linejoin:round;stroke-miterlimit:10;stroke-dasharray:none;stroke-opacity:1"
         d="m 272,752 0,16 -32,0" /></g><g
       id="g40"><path
         id="path42"
         style="fill:none;stroke:#000000;stroke-width:0.40000001;stroke-linecap:butt;stroke-linejoin:round;stroke-miterlimit:10;stroke-dasharray:none;stroke-opacity:1"
         d="m 272,704 0,-16 -32,0" /></g><g
       id="g44"><g
         id="g46"><path
           id="path48"
           style="fill:#000000;fill-opacity:1;fill-rule:evenodd;stroke:none"
           d="m 241.8,768 c 0,0.994 -0.806,1.8 -1.8,1.8 -0.994,0 -1.8,-0.806 -1.8,-1.8 0,-0.994 0.806,-1.8 1.8,-1.8 0.994,0 1.8,0.806 1.8,1.8" /></g></g><g
       id="g50"><g
         id="g52"><path
           id="path54"
           style="fill:#000000;fill-opacity:1;fill-rule:evenodd;stroke:none"
           d="m 241.8,688 c 0,0.994 -0.806,1.8 -1.8,1.8 -0.994,0 -1.8,-0.806 -1.8,-1.8 0,-0.994 0.806,-1.8 1.8,-1.8 0.994,0 1.8,0.806 1.8,1.8" /></g></g><g
       transform="translate(228,764.79)"
       id="g56"><g
         id="g58"><g
           clip-path="url(#clipPath62)"
           id="g60"><g
             transform="translate(0,-785.58)"
             id="g66"><text
               id="text68"
               style="font-variant:normal;font-weight:normal;font-size:9.96259975px;font-family:CMR10;-inkscape-font-specification:CMR10;writing-mode:lr-tb;fill:#000000;fill-opacity:1;fill-rule:nonzero;stroke:none"
               transform="matrix(1,0,0,-1,0,785.58)"><tspan
                 id="tspan70"
                 y="0"
                 x="0">1</tspan></text>
</g></g></g></g><g
       transform="translate(228,684.79)"
       id="g72"><g
         id="g74"><g
           clip-path="url(#clipPath78)"
           id="g76"><g
             transform="translate(0,-785.58)"
             id="g82"><text
               id="text84"
               style="font-variant:normal;font-weight:normal;font-size:9.96259975px;font-family:CMR10;-inkscape-font-specification:CMR10;writing-mode:lr-tb;fill:#000000;fill-opacity:1;fill-rule:nonzero;stroke:none"
               transform="matrix(1,0,0,-1,0,785.58)"><tspan
                 id="tspan86"
                 y="0"
                 x="0">2</tspan></text>
</g></g></g></g></g></svg>