<?xml version="1.0" encoding="UTF-8" standalone="no"?>
<svg
   xmlns:dc="http://purl.org/dc/elements/1.1/"
   xmlns:cc="http://creativecommons.org/ns#"
   xmlns:rdf="http://www.w3.org/1999/02/22-rdf-syntax-ns#"
   xmlns:svg="http://www.w3.org/2000/svg"
   xmlns="http://www.w3.org/2000/svg"
   viewBox="0 0 154 120.525"
   height="120.525"
   width="154"
   xml:space="preserve"
   version="1.1"
   id="svg2"><metadata
     id="metadata8"><rdf:RDF><cc:Work
         rdf:about=""><dc:format>image/svg+xml</dc:format><dc:type
           rdf:resource="http://purl.org/dc/dcmitype/StillImage" /></cc:Work></rdf:RDF></metadata><defs
     id="defs6"><clipPath
       id="clipPath12"
       clipPathUnits="userSpaceOnUse"><path
         id="path14"
         d="M 0,0 595,0 595,842 0,842 0,0 Z" /></clipPath><clipPath
       id="clipPath30"
       clipPathUnits="userSpaceOnUse"><path
         id="path32"
         d="m -1,-1 21.981,0 0,11.963 L -1,10.963 -1,-1 Z" /></clipPath><clipPath
       id="clipPath54"
       clipPathUnits="userSpaceOnUse"><path
         id="path56"
         d="m -1,-1 21.981,0 0,11.963 L -1,10.963 -1,-1 Z" /></clipPath><clipPath
       id="clipPath78"
       clipPathUnits="userSpaceOnUse"><path
         id="path80"
         d="m -1,-1 21.981,0 0,11.963 L -1,10.963 -1,-1 Z" /></clipPath><clipPath
       id="clipPath124"
       clipPathUnits="userSpaceOnUse"><path
         id="path126"
         d="m -1,-1 6.981,0 0,8.42 L -1,7.42 -1,-1 Z" /></clipPath><clipPath
       id="clipPath140"
       clipPathUnits="userSpaceOnUse"><path
         id="path142"
         d="m -1,-1 6.981,0 0,8.42 L -1,7.42 -1,-1 Z" /></clipPath><clipPath
       id="clipPath156"
       clipPathUnits="userSpaceOnUse"><path
         id="path158"
         d="m -1,-1 6.981,0 0,8.42 L -1,7.42 -1,-1 Z" /></clipPath></defs><g
     clip-path="url(#clipPath12)"
     transform="matrix(1.25,0,0,-1.25,-513.75,985.2625)"
     id="g10"><g
       id="g16"><path
         id="path18"
         style="fill:#d3d3d3;fill-opacity:1;fill-rule:evenodd;stroke:#000000;stroke-width:0.40000001;stroke-linecap:butt;stroke-linejoin:round;stroke-miterlimit:10;stroke-dasharray:none;stroke-opacity:1"
         d="m 432,740 88,-44" /></g><g
       id="g20"><path
         id="path22"
         style="fill:#d3d3d3;fill-opacity:1;fill-rule:evenodd;stroke:#000000;stroke-width:0.40000001;stroke-linecap:butt;stroke-linejoin:round;stroke-miterlimit:10;stroke-dasharray:none;stroke-opacity:1"
         d="m 457.978,714.101 24.632,-13.315 11.412,21.113 -24.632,13.315 -11.412,-21.113 z" /></g><g
       transform="translate(466.01,713.019)"
       id="g24"><g
         id="g26"><g
           clip-path="url(#clipPath30)"
           id="g28"><g
             transform="translate(0,-782.037)"
             id="g34"><text
               id="text36"
               style="font-variant:normal;font-weight:normal;font-size:9.96259975px;font-family:CMR10;-inkscape-font-specification:CMR10;writing-mode:lr-tb;fill:#000000;fill-opacity:1;fill-rule:nonzero;stroke:none"
               transform="matrix(1,0,0,-1,0,784.528)"><tspan
                 id="tspan38"
                 y="0"
                 x="0 3.9292495 9.4644699 12.23208 17.213381">sd[2]</tspan></text>
</g></g></g></g><g
       id="g40"><path
         id="path42"
         style="fill:#d3d3d3;fill-opacity:1;fill-rule:evenodd;stroke:#000000;stroke-width:0.40000001;stroke-linecap:butt;stroke-linejoin:round;stroke-miterlimit:10;stroke-dasharray:none;stroke-opacity:1"
         d="m 432,740 88,44" /></g><g
       id="g44"><path
         id="path46"
         style="fill:#d3d3d3;fill-opacity:1;fill-rule:evenodd;stroke:#000000;stroke-width:0.40000001;stroke-linecap:butt;stroke-linejoin:round;stroke-miterlimit:10;stroke-dasharray:none;stroke-opacity:1"
         d="m 469.98,744.571 24.164,14.145 -12.124,20.713 -24.164,-14.145 12.124,-20.713 z" /></g><g
       transform="translate(466.01,757.019)"
       id="g48"><g
         id="g50"><g
           clip-path="url(#clipPath54)"
           id="g52"><g
             transform="translate(0,-782.037)"
             id="g58"><text
               id="text60"
               style="font-variant:normal;font-weight:normal;font-size:9.96259975px;font-family:CMR10;-inkscape-font-specification:CMR10;writing-mode:lr-tb;fill:#000000;fill-opacity:1;fill-rule:nonzero;stroke:none"
               transform="matrix(1,0,0,-1,0,784.528)"><tspan
                 id="tspan62"
                 y="0"
                 x="0 3.9292495 9.4644699 12.23208 17.213381">sd[1]</tspan></text>
</g></g></g></g><g
       id="g64"><path
         id="path66"
         style="fill:#d3d3d3;fill-opacity:1;fill-rule:evenodd;stroke:#000000;stroke-width:0.40000001;stroke-linecap:butt;stroke-linejoin:round;stroke-miterlimit:10;stroke-dasharray:none;stroke-opacity:1"
         d="m 520,784 0,-88" /></g><g
       id="g68"><path
         id="path70"
         style="fill:#d3d3d3;fill-opacity:1;fill-rule:evenodd;stroke:#000000;stroke-width:0.40000001;stroke-linecap:butt;stroke-linejoin:round;stroke-miterlimit:10;stroke-dasharray:none;stroke-opacity:1"
         d="m 506,728 28,0 0,24 -28,0 0,-24 z" /></g><g
       transform="translate(510.01,735.019)"
       id="g72"><g
         id="g74"><g
           clip-path="url(#clipPath78)"
           id="g76"><g
             transform="translate(0,-782.037)"
             id="g82"><text
               id="text84"
               style="font-variant:normal;font-weight:normal;font-size:9.96259975px;font-family:CMR10;-inkscape-font-specification:CMR10;writing-mode:lr-tb;fill:#000000;fill-opacity:1;fill-rule:nonzero;stroke:none"
               transform="matrix(1,0,0,-1,0,784.528)"><tspan
                 id="tspan86"
                 y="0"
                 x="0 3.9292495 9.4644699 12.23208 17.213381">sd[3]</tspan></text>
</g></g></g></g><g
       id="g88"><path
         id="path90"
         style="fill:#d3d3d3;fill-opacity:1;fill-rule:evenodd;stroke:#000000;stroke-width:0.40000001;stroke-linecap:butt;stroke-linejoin:round;stroke-miterlimit:10;stroke-dasharray:none;stroke-opacity:1"
         d="m 520,784 -96,0" /></g><g
       id="g92"><path
         id="path94"
         style="fill:#d3d3d3;fill-opacity:1;fill-rule:evenodd;stroke:#000000;stroke-width:0.40000001;stroke-linecap:butt;stroke-linejoin:round;stroke-miterlimit:10;stroke-dasharray:none;stroke-opacity:1"
         d="m 432,740 -8,0" /></g><g
       id="g96"><path
         id="path98"
         style="fill:#d3d3d3;fill-opacity:1;fill-rule:evenodd;stroke:#000000;stroke-width:0.40000001;stroke-linecap:butt;stroke-linejoin:round;stroke-miterlimit:10;stroke-dasharray:none;stroke-opacity:1"
         d="m 520,696 -96,0" /></g><g
       id="g100"><g
         id="g102"><path
           id="path104"
           style="fill:#000000;fill-opacity:1;fill-rule:evenodd;stroke:none"
           d="m 425.8,784 c 0,0.994 -0.806,1.8 -1.8,1.8 -0.994,0 -1.8,-0.806 -1.8,-1.8 0,-0.994 0.806,-1.8 1.8,-1.8 0.994,0 1.8,0.806 1.8,1.8" /></g></g><g
       id="g106"><g
         id="g108"><path
           id="path110"
           style="fill:#000000;fill-opacity:1;fill-rule:evenodd;stroke:none"
           d="m 425.8,740 c 0,0.994 -0.806,1.8 -1.8,1.8 -0.994,0 -1.8,-0.806 -1.8,-1.8 0,-0.994 0.806,-1.8 1.8,-1.8 0.994,0 1.8,0.806 1.8,1.8" /></g></g><g
       id="g112"><g
         id="g114"><path
           id="path116"
           style="fill:#000000;fill-opacity:1;fill-rule:evenodd;stroke:none"
           d="m 425.8,696 c 0,0.994 -0.806,1.8 -1.8,1.8 -0.994,0 -1.8,-0.806 -1.8,-1.8 0,-0.994 0.806,-1.8 1.8,-1.8 0.994,0 1.8,0.806 1.8,1.8" /></g></g><g
       transform="translate(412,780.79)"
       id="g118"><g
         id="g120"><g
           clip-path="url(#clipPath124)"
           id="g122"><g
             transform="translate(0,-785.58)"
             id="g128"><text
               id="text130"
               style="font-variant:normal;font-weight:normal;font-size:9.96259975px;font-family:CMR10;-inkscape-font-specification:CMR10;writing-mode:lr-tb;fill:#000000;fill-opacity:1;fill-rule:nonzero;stroke:none"
               transform="matrix(1,0,0,-1,0,785.58)"><tspan
                 id="tspan132"
                 y="0"
                 x="0">1</tspan></text>
</g></g></g></g><g
       transform="translate(412,736.79)"
       id="g134"><g
         id="g136"><g
           clip-path="url(#clipPath140)"
           id="g138"><g
             transform="translate(0,-785.58)"
             id="g144"><text
               id="text146"
               style="font-variant:normal;font-weight:normal;font-size:9.96259975px;font-family:CMR10;-inkscape-font-specification:CMR10;writing-mode:lr-tb;fill:#000000;fill-opacity:1;fill-rule:nonzero;stroke:none"
               transform="matrix(1,0,0,-1,0,785.58)"><tspan
                 id="tspan148"
                 y="0"
                 x="0">2</tspan></text>
</g></g></g></g><g
       transform="translate(412,692.79)"
       id="g150"><g
         id="g152"><g
           clip-path="url(#clipPath156)"
           id="g154"><g
             transform="translate(0,-785.58)"
             id="g160"><text
               id="text162"
               style="font-variant:normal;font-weight:normal;font-size:9.96259975px;font-family:CMR10;-inkscape-font-specification:CMR10;writing-mode:lr-tb;fill:#000000;fill-opacity:1;fill-rule:nonzero;stroke:none"
               transform="matrix(1,0,0,-1,0,785.58)"><tspan
                 id="tspan164"
                 y="0"
                 x="0">3</tspan></text>
</g></g></g></g></g></svg>