<?xml version="1.0" encoding="UTF-8" standalone="no"?>
<svg
   xmlns:dc="http://purl.org/dc/elements/1.1/"
   xmlns:cc="http://creativecommons.org/ns#"
   xmlns:rdf="http://www.w3.org/1999/02/22-rdf-syntax-ns#"
   xmlns:svg="http://www.w3.org/2000/svg"
   xmlns="http://www.w3.org/2000/svg"
   viewBox="0 0 305.5025 120.1475"
   height="120.1475"
   width="305.5025"
   xml:space="preserve"
   version="1.1"
   id="svg2"><metadata
     id="metadata8"><rdf:RDF><cc:Work
         rdf:about=""><dc:format>image/svg+xml</dc:format><dc:type
           rdf:resource="http://purl.org/dc/dcmitype/StillImage" /></cc:Work></rdf:RDF></metadata><defs
     id="defs6"><clipPath
       id="clipPath12"
       clipPathUnits="userSpaceOnUse"><path
         id="path14"
         d="M 0,0 595,0 595,842 0,842 0,0 Z" /></clipPath><clipPath
       id="clipPath58"
       clipPathUnits="userSpaceOnUse"><path
         id="path60"
         d="m -1,-1 6.981,0 0,6.289 L -1,5.289 -1,-1 Z" /></clipPath><clipPath
       id="clipPath74"
       clipPathUnits="userSpaceOnUse"><path
         id="path76"
         d="m -1,-1 16.999,0 0,8.918 L -1,7.918 -1,-1 Z" /></clipPath><clipPath
       id="clipPath90"
       clipPathUnits="userSpaceOnUse"><path
         id="path92"
         d="m -1,-1 7.535,0 0,8.918 L -1,7.918 -1,-1 Z" /></clipPath><clipPath
       id="clipPath106"
       clipPathUnits="userSpaceOnUse"><path
         id="path108"
         d="m -1,-1 6.428,0 0,6.289 L -1,5.289 -1,-1 Z" /></clipPath><clipPath
       id="clipPath122"
       clipPathUnits="userSpaceOnUse"><path
         id="path124"
         d="m -1,-1 7.535,0 0,6.289 L -1,5.289 -1,-1 Z" /></clipPath><clipPath
       id="clipPath168"
       clipPathUnits="userSpaceOnUse"><path
         id="path170"
         d="m -1,-1 6.981,0 0,8.42 L -1,7.42 -1,-1 Z" /></clipPath><clipPath
       id="clipPath184"
       clipPathUnits="userSpaceOnUse"><path
         id="path186"
         d="m -1,-1 6.981,0 0,8.42 L -1,7.42 -1,-1 Z" /></clipPath><clipPath
       id="clipPath200"
       clipPathUnits="userSpaceOnUse"><path
         id="path202"
         d="m -1,-1 6.981,0 0,8.42 L -1,7.42 -1,-1 Z" /></clipPath><clipPath
       id="clipPath220"
       clipPathUnits="userSpaceOnUse"><path
         id="path222"
         d="m -1,-1 21.981,0 0,11.963 L -1,10.963 -1,-1 Z" /></clipPath><clipPath
       id="clipPath240"
       clipPathUnits="userSpaceOnUse"><path
         id="path242"
         d="m -1,-1 21.981,0 0,11.963 L -1,10.963 -1,-1 Z" /></clipPath><clipPath
       id="clipPath266"
       clipPathUnits="userSpaceOnUse"><path
         id="path268"
         d="m -1,-1 20.265,0 0,8.918 L -1,7.918 -1,-1 Z" /></clipPath><clipPath
       id="clipPath282"
       clipPathUnits="userSpaceOnUse"><path
         id="path284"
         d="m -1,-1 116.073,0 0,11.963 L -1,10.963 -1,-1 Z" /></clipPath><clipPath
       id="clipPath298"
       clipPathUnits="userSpaceOnUse"><path
         id="path300"
         d="m -1,-1 124.402,0 0,11.963 L -1,10.963 -1,-1 Z" /></clipPath></defs><g
     clip-path="url(#clipPath12)"
     transform="matrix(1.25,0,0,-1.25,-278.75,839.8975)"
     id="g10"><g
       id="g16"><path
         id="path18"
         style="fill:none;stroke:#a9a9a9;stroke-width:0.40000001;stroke-linecap:butt;stroke-linejoin:round;stroke-miterlimit:10;stroke-dasharray:none;stroke-opacity:1"
         d="m 264,604 -24,0" /></g><g
       id="g20"><path
         id="path22"
         style="fill:none;stroke:#a9a9a9;stroke-width:0.40000001;stroke-linecap:butt;stroke-linejoin:round;stroke-miterlimit:10;stroke-dasharray:none;stroke-opacity:1"
         d="m 264,584 -24,0" /></g><g
       id="g24"><path
         id="path26"
         style="fill:none;stroke:#a9a9a9;stroke-width:0.40000001;stroke-linecap:butt;stroke-linejoin:round;stroke-miterlimit:10;stroke-dasharray:none;stroke-opacity:1"
         d="m 264,644 -24,0" /></g><g
       id="g28"><g
         id="g30"><path
           id="path32"
           style="fill:#00008b;fill-opacity:1;fill-rule:evenodd;stroke:none"
           d="m 241.8,644 c 0,0.994 -0.806,1.8 -1.8,1.8 -0.994,0 -1.8,-0.806 -1.8,-1.8 0,-0.994 0.806,-1.8 1.8,-1.8 0.994,0 1.8,0.806 1.8,1.8" /></g></g><g
       id="g34"><g
         id="g36"><path
           id="path38"
           style="fill:#00008b;fill-opacity:1;fill-rule:evenodd;stroke:none"
           d="m 241.8,624 c 0,0.994 -0.806,1.8 -1.8,1.8 -0.994,0 -1.8,-0.806 -1.8,-1.8 0,-0.994 0.806,-1.8 1.8,-1.8 0.994,0 1.8,0.806 1.8,1.8" /></g></g><g
       id="g40"><g
         id="g42"><path
           id="path44"
           style="fill:#00008b;fill-opacity:1;fill-rule:evenodd;stroke:none"
           d="m 241.8,604 c 0,0.994 -0.806,1.8 -1.8,1.8 -0.994,0 -1.8,-0.806 -1.8,-1.8 0,-0.994 0.806,-1.8 1.8,-1.8 0.994,0 1.8,0.806 1.8,1.8" /></g></g><g
       id="g46"><g
         id="g48"><path
           id="path50"
           style="fill:#00008b;fill-opacity:1;fill-rule:evenodd;stroke:none"
           d="m 241.8,584 c 0,0.994 -0.806,1.8 -1.8,1.8 -0.994,0 -1.8,-0.806 -1.8,-1.8 0,-0.994 0.806,-1.8 1.8,-1.8 0.994,0 1.8,0.806 1.8,1.8" /></g></g><g
       transform="translate(224,641.856)"
       id="g52"><g
         id="g54"><g
           clip-path="url(#clipPath58)"
           id="g56"><g
             transform="translate(0,-787.711)"
             id="g62"><text
               id="text64"
               style="font-variant:normal;font-weight:normal;font-size:9.96259975px;font-family:CMR10;-inkscape-font-specification:CMR10;writing-mode:lr-tb;fill:#00008b;fill-opacity:1;fill-rule:nonzero;stroke:none"
               transform="matrix(1,0,0,-1,0,787.711)"><tspan
                 id="tspan66"
                 y="0"
                 x="0">a</tspan></text>
</g></g></g></g><g
       transform="translate(232.5,664)"
       id="g68"><g
         id="g70"><g
           clip-path="url(#clipPath74)"
           id="g72"><g
             transform="translate(0,-785.081)"
             id="g78"><text
               id="text80"
               style="font-variant:normal;font-weight:normal;font-size:9.96259975px;font-family:CMR10;-inkscape-font-specification:CMR10;writing-mode:lr-tb;fill:#00008b;fill-opacity:1;fill-rule:nonzero;stroke:none"
               transform="matrix(1,0,0,-1,0,785.081)"><tspan
                 id="tspan82"
                 y="0"
                 x="0 5.5352206 11.070441">bus</tspan></text>
</g></g></g></g><g
       transform="translate(224,620.541)"
       id="g84"><g
         id="g86"><g
           clip-path="url(#clipPath90)"
           id="g88"><g
             transform="translate(0,-785.081)"
             id="g94"><text
               id="text96"
               style="font-variant:normal;font-weight:normal;font-size:9.96259975px;font-family:CMR10;-inkscape-font-specification:CMR10;writing-mode:lr-tb;fill:#00008b;fill-opacity:1;fill-rule:nonzero;stroke:none"
               transform="matrix(1,0,0,-1,0,785.081)"><tspan
                 id="tspan98"
                 y="0"
                 x="0">b</tspan></text>
</g></g></g></g><g
       transform="translate(224,601.856)"
       id="g100"><g
         id="g102"><g
           clip-path="url(#clipPath106)"
           id="g104"><g
             transform="translate(0,-787.711)"
             id="g110"><text
               id="text112"
               style="font-variant:normal;font-weight:normal;font-size:9.96259975px;font-family:CMR10;-inkscape-font-specification:CMR10;writing-mode:lr-tb;fill:#00008b;fill-opacity:1;fill-rule:nonzero;stroke:none"
               transform="matrix(1,0,0,-1,0,787.711)"><tspan
                 id="tspan114"
                 y="0"
                 x="0">c</tspan></text>
</g></g></g></g><g
       transform="translate(224,581.856)"
       id="g116"><g
         id="g118"><g
           clip-path="url(#clipPath122)"
           id="g120"><g
             transform="translate(0,-787.711)"
             id="g126"><text
               id="text128"
               style="font-variant:normal;font-weight:normal;font-size:9.96259975px;font-family:CMR10;-inkscape-font-specification:CMR10;writing-mode:lr-tb;fill:#00008b;fill-opacity:1;fill-rule:nonzero;stroke:none"
               transform="matrix(1,0,0,-1,0,787.711)"><tspan
                 id="tspan130"
                 y="0"
                 x="0">n</tspan></text>
</g></g></g></g><g
       id="g132"><path
         id="path134"
         style="fill:#d3d3d3;fill-opacity:1;fill-rule:evenodd;stroke:#000000;stroke-width:0.40000001;stroke-linecap:butt;stroke-linejoin:round;stroke-miterlimit:10;stroke-dasharray:none;stroke-opacity:1"
         d="m 264,644 64,0" /></g><g
       id="g136"><path
         id="path138"
         style="fill:#d3d3d3;fill-opacity:1;fill-rule:evenodd;stroke:#000000;stroke-width:0.40000001;stroke-linecap:butt;stroke-linejoin:round;stroke-miterlimit:10;stroke-dasharray:none;stroke-opacity:1"
         d="m 264,604 64,0" /></g><g
       id="g140"><path
         id="path142"
         style="fill:#d3d3d3;fill-opacity:1;fill-rule:evenodd;stroke:#000000;stroke-width:0.40000001;stroke-linecap:butt;stroke-linejoin:round;stroke-miterlimit:10;stroke-dasharray:none;stroke-opacity:1"
         d="m 264,584 64,0" /></g><g
       id="g144"><g
         id="g146"><path
           id="path148"
           style="fill:#000000;fill-opacity:1;fill-rule:evenodd;stroke:none"
           d="m 265.8,644 c 0,0.994 -0.806,1.8 -1.8,1.8 -0.994,0 -1.8,-0.806 -1.8,-1.8 0,-0.994 0.806,-1.8 1.8,-1.8 0.994,0 1.8,0.806 1.8,1.8" /></g></g><g
       id="g150"><g
         id="g152"><path
           id="path154"
           style="fill:#000000;fill-opacity:1;fill-rule:evenodd;stroke:none"
           d="m 265.8,604 c 0,0.994 -0.806,1.8 -1.8,1.8 -0.994,0 -1.8,-0.806 -1.8,-1.8 0,-0.994 0.806,-1.8 1.8,-1.8 0.994,0 1.8,0.806 1.8,1.8" /></g></g><g
       id="g156"><g
         id="g158"><path
           id="path160"
           style="fill:#000000;fill-opacity:1;fill-rule:evenodd;stroke:none"
           d="m 265.8,584 c 0,0.994 -0.806,1.8 -1.8,1.8 -0.994,0 -1.8,-0.806 -1.8,-1.8 0,-0.994 0.806,-1.8 1.8,-1.8 0.994,0 1.8,0.806 1.8,1.8" /></g></g><g
       transform="translate(252,640.79)"
       id="g162"><g
         id="g164"><g
           clip-path="url(#clipPath168)"
           id="g166"><g
             transform="translate(0,-785.58)"
             id="g172"><text
               id="text174"
               style="font-variant:normal;font-weight:normal;font-size:9.96259975px;font-family:CMR10;-inkscape-font-specification:CMR10;writing-mode:lr-tb;fill:#000000;fill-opacity:1;fill-rule:nonzero;stroke:none"
               transform="matrix(1,0,0,-1,0,785.58)"><tspan
                 id="tspan176"
                 y="0"
                 x="0">1</tspan></text>
</g></g></g></g><g
       transform="translate(252,600.79)"
       id="g178"><g
         id="g180"><g
           clip-path="url(#clipPath184)"
           id="g182"><g
             transform="translate(0,-785.58)"
             id="g188"><text
               id="text190"
               style="font-variant:normal;font-weight:normal;font-size:9.96259975px;font-family:CMR10;-inkscape-font-specification:CMR10;writing-mode:lr-tb;fill:#000000;fill-opacity:1;fill-rule:nonzero;stroke:none"
               transform="matrix(1,0,0,-1,0,785.58)"><tspan
                 id="tspan192"
                 y="0"
                 x="0">2</tspan></text>
</g></g></g></g><g
       transform="translate(252,580.79)"
       id="g194"><g
         id="g196"><g
           clip-path="url(#clipPath200)"
           id="g198"><g
             transform="translate(0,-785.58)"
             id="g204"><text
               id="text206"
               style="font-variant:normal;font-weight:normal;font-size:9.96259975px;font-family:CMR10;-inkscape-font-specification:CMR10;writing-mode:lr-tb;fill:#000000;fill-opacity:1;fill-rule:nonzero;stroke:none"
               transform="matrix(1,0,0,-1,0,785.58)"><tspan
                 id="tspan208"
                 y="0"
                 x="0">3</tspan></text>
</g></g></g></g><g
       id="g210"><path
         id="path212"
         style="fill:#d3d3d3;fill-opacity:1;fill-rule:evenodd;stroke:#000000;stroke-width:0.40000001;stroke-linecap:butt;stroke-linejoin:round;stroke-miterlimit:10;stroke-dasharray:none;stroke-opacity:1"
         d="m 282,632 28,0 0,24 -28,0 0,-24 z" /></g><g
       transform="translate(286.01,639.019)"
       id="g214"><g
         id="g216"><g
           clip-path="url(#clipPath220)"
           id="g218"><g
             transform="translate(0,-782.037)"
             id="g224"><text
               id="text226"
               style="font-variant:normal;font-weight:normal;font-size:9.96259975px;font-family:CMR10;-inkscape-font-specification:CMR10;writing-mode:lr-tb;fill:#000000;fill-opacity:1;fill-rule:nonzero;stroke:none"
               transform="matrix(1,0,0,-1,0,784.528)"><tspan
                 id="tspan228"
                 y="0"
                 x="0 3.9292495 9.4644699 12.23208 17.213381">sd[1]</tspan></text>
</g></g></g></g><g
       id="g230"><path
         id="path232"
         style="fill:#d3d3d3;fill-opacity:1;fill-rule:evenodd;stroke:#000000;stroke-width:0.40000001;stroke-linecap:butt;stroke-linejoin:round;stroke-miterlimit:10;stroke-dasharray:none;stroke-opacity:1"
         d="m 282,592 28,0 0,24 -28,0 0,-24 z" /></g><g
       transform="translate(286.01,599.019)"
       id="g234"><g
         id="g236"><g
           clip-path="url(#clipPath240)"
           id="g238"><g
             transform="translate(0,-782.037)"
             id="g244"><text
               id="text246"
               style="font-variant:normal;font-weight:normal;font-size:9.96259975px;font-family:CMR10;-inkscape-font-specification:CMR10;writing-mode:lr-tb;fill:#000000;fill-opacity:1;fill-rule:nonzero;stroke:none"
               transform="matrix(1,0,0,-1,0,784.528)"><tspan
                 id="tspan248"
                 y="0"
                 x="0 3.9292495 9.4644699 12.23208 17.213381">sd[2]</tspan></text>
</g></g></g></g><g
       id="g250" /><g
       id="g252"><path
         id="path254"
         style="fill:none;stroke:#00008b;stroke-width:0.40000001;stroke-linecap:butt;stroke-linejoin:round;stroke-miterlimit:10;stroke-dasharray:none;stroke-opacity:1"
         d="m 236,652 0,-76 8,0 0,76 -8,0 z" /></g><g
       id="g256"><path
         id="path258"
         style="fill:none;stroke:#000000;stroke-width:0.40000001;stroke-linecap:butt;stroke-linejoin:round;stroke-miterlimit:10;stroke-dasharray:none;stroke-opacity:1"
         d="m 328,644 0,-60" /></g><g
       transform="translate(286.868,664)"
       id="g260"><g
         id="g262"><g
           clip-path="url(#clipPath266)"
           id="g264"><g
             transform="translate(0,-785.081)"
             id="g270"><text
               id="text272"
               style="font-variant:normal;font-weight:normal;font-size:9.96259975px;font-family:CMR10;-inkscape-font-specification:CMR10;writing-mode:lr-tb;fill:#000000;fill-opacity:1;fill-rule:nonzero;stroke:none"
               transform="matrix(1,0,0,-1,0,785.081)"><tspan
                 id="tspan274"
                 y="0"
                 x="0 2.7676103 7.7489104 12.73021">load</tspan></text>
</g></g></g></g><g
       transform="translate(344,605.51)"
       id="g276"><g
         id="g278"><g
           clip-path="url(#clipPath282)"
           id="g280"><g
             transform="translate(0,-782.037)"
             id="g286"><text
               id="text288"
               style="font-variant:normal;font-weight:normal;font-size:9.96259975px;font-family:CMR10;-inkscape-font-specification:CMR10;writing-mode:lr-tb;fill:#000000;fill-opacity:1;fill-rule:nonzero;stroke:none"
               transform="matrix(1,0,0,-1,0,784.528)"><tspan
                 id="tspan290"
                 y="0"
                 x="0 4.4273796 9.408679 14.9439 20.47912 24.9065 29.333879 33.208336 35.975945 40.957245 46.492466 50.421715 58.170624 60.938236 65.919533 70.900833 75.882133 78.649742 83.631042 88.058426 93.039726 95.807335 100.78864 106.32385 111.30515">connections=[“a”,“c”,“n”]</tspan></text>
</g></g></g></g><g
       transform="translate(344,621.51)"
       id="g292"><g
         id="g294"><g
           clip-path="url(#clipPath298)"
           id="g296"><g
             transform="translate(0,-782.037)"
             id="g302"><text
               id="text304"
               style="font-variant:normal;font-weight:normal;font-size:9.96259975px;font-family:CMR10;-inkscape-font-specification:CMR10;writing-mode:lr-tb;fill:#00008b;fill-opacity:1;fill-rule:nonzero;stroke:none"
               transform="matrix(1,0,0,-1,0,784.528)"><tspan
                 id="tspan306"
                 y="0"
                 x="0 3.8744552 8.3018341 12.204185 20.50602 23.27363 28.808851 33.79015 36.557762 40.487011 48.23592 51.003532 55.984829 60.966129 65.947433 68.715042 73.696342 79.23156 84.21286 86.980469 91.961769 96.389153 101.37045 104.13806 109.11936 114.65458 119.63588">terminals=[“a”,“b”,“c”,“n”]</tspan></text>
</g></g></g></g></g></svg>