<?xml version="1.0" encoding="UTF-8" standalone="no"?>
<svg
   xmlns:dc="http://purl.org/dc/elements/1.1/"
   xmlns:cc="http://creativecommons.org/ns#"
   xmlns:rdf="http://www.w3.org/1999/02/22-rdf-syntax-ns#"
   xmlns:svg="http://www.w3.org/2000/svg"
   xmlns="http://www.w3.org/2000/svg"
   viewBox="0 0 96.5 90.512497"
   height="90.512497"
   width="96.5"
   xml:space="preserve"
   version="1.1"
   id="svg2"><metadata
     id="metadata8"><rdf:RDF><cc:Work
         rdf:about=""><dc:format>image/svg+xml</dc:format><dc:type
           rdf:resource="http://purl.org/dc/dcmitype/StillImage" /></cc:Work></rdf:RDF></metadata><defs
     id="defs6"><clipPath
       id="clipPath12"
       clipPathUnits="userSpaceOnUse"><path
         id="path14"
         d="M 0,0 595,0 595,842 0,842 0,0 Z" /></clipPath><clipPath
       id="clipPath52"
       clipPathUnits="userSpaceOnUse"><path
         id="path54"
         d="m -1,-1 6.981,0 0,8.42 L -1,7.42 -1,-1 Z" /></clipPath><clipPath
       id="clipPath68"
       clipPathUnits="userSpaceOnUse"><path
         id="path70"
         d="m -1,-1 6.981,0 0,8.42 L -1,7.42 -1,-1 Z" /></clipPath><clipPath
       id="clipPath84"
       clipPathUnits="userSpaceOnUse"><path
         id="path86"
         d="m -1,-1 6.981,0 0,8.42 L -1,7.42 -1,-1 Z" /></clipPath><clipPath
       id="clipPath104"
       clipPathUnits="userSpaceOnUse"><path
         id="path106"
         d="m -1,-1 21.981,0 0,11.963 L -1,10.963 -1,-1 Z" /></clipPath><clipPath
       id="clipPath124"
       clipPathUnits="userSpaceOnUse"><path
         id="path126"
         d="m -1,-1 21.981,0 0,11.963 L -1,10.963 -1,-1 Z" /></clipPath></defs><g
     clip-path="url(#clipPath12)"
     transform="matrix(1.25,0,0,-1.25,-343.75,820.25)"
     id="g10"><g
       id="g16"><path
         id="path18"
         style="fill:#d3d3d3;fill-opacity:1;fill-rule:evenodd;stroke:#000000;stroke-width:0.40000001;stroke-linecap:butt;stroke-linejoin:round;stroke-miterlimit:10;stroke-dasharray:none;stroke-opacity:1"
         d="m 288,644 64,0" /></g><g
       id="g20"><path
         id="path22"
         style="fill:#d3d3d3;fill-opacity:1;fill-rule:evenodd;stroke:#000000;stroke-width:0.40000001;stroke-linecap:butt;stroke-linejoin:round;stroke-miterlimit:10;stroke-dasharray:none;stroke-opacity:1"
         d="m 288,616 64,0" /></g><g
       id="g24"><path
         id="path26"
         style="fill:#d3d3d3;fill-opacity:1;fill-rule:evenodd;stroke:#000000;stroke-width:0.40000001;stroke-linecap:butt;stroke-linejoin:round;stroke-miterlimit:10;stroke-dasharray:none;stroke-opacity:1"
         d="m 288,588 64,0" /></g><g
       id="g28"><g
         id="g30"><path
           id="path32"
           style="fill:#000000;fill-opacity:1;fill-rule:evenodd;stroke:none"
           d="m 289.8,644 c 0,0.994 -0.806,1.8 -1.8,1.8 -0.994,0 -1.8,-0.806 -1.8,-1.8 0,-0.994 0.806,-1.8 1.8,-1.8 0.994,0 1.8,0.806 1.8,1.8" /></g></g><g
       id="g34"><g
         id="g36"><path
           id="path38"
           style="fill:#000000;fill-opacity:1;fill-rule:evenodd;stroke:none"
           d="m 289.8,616 c 0,0.994 -0.806,1.8 -1.8,1.8 -0.994,0 -1.8,-0.806 -1.8,-1.8 0,-0.994 0.806,-1.8 1.8,-1.8 0.994,0 1.8,0.806 1.8,1.8" /></g></g><g
       id="g40"><g
         id="g42"><path
           id="path44"
           style="fill:#000000;fill-opacity:1;fill-rule:evenodd;stroke:none"
           d="m 289.8,588 c 0,0.994 -0.806,1.8 -1.8,1.8 -0.994,0 -1.8,-0.806 -1.8,-1.8 0,-0.994 0.806,-1.8 1.8,-1.8 0.994,0 1.8,0.806 1.8,1.8" /></g></g><g
       transform="translate(276,640.79)"
       id="g46"><g
         id="g48"><g
           clip-path="url(#clipPath52)"
           id="g50"><g
             transform="translate(0,-785.58)"
             id="g56"><text
               id="text58"
               style="font-variant:normal;font-weight:normal;font-size:9.96259975px;font-family:CMR10;-inkscape-font-specification:CMR10;writing-mode:lr-tb;fill:#000000;fill-opacity:1;fill-rule:nonzero;stroke:none"
               transform="matrix(1,0,0,-1,0,785.58)"><tspan
                 id="tspan60"
                 y="0"
                 x="0">1</tspan></text>
</g></g></g></g><g
       transform="translate(276,612.79)"
       id="g62"><g
         id="g64"><g
           clip-path="url(#clipPath68)"
           id="g66"><g
             transform="translate(0,-785.58)"
             id="g72"><text
               id="text74"
               style="font-variant:normal;font-weight:normal;font-size:9.96259975px;font-family:CMR10;-inkscape-font-specification:CMR10;writing-mode:lr-tb;fill:#000000;fill-opacity:1;fill-rule:nonzero;stroke:none"
               transform="matrix(1,0,0,-1,0,785.58)"><tspan
                 id="tspan76"
                 y="0"
                 x="0">2</tspan></text>
</g></g></g></g><g
       transform="translate(276,584.79)"
       id="g78"><g
         id="g80"><g
           clip-path="url(#clipPath84)"
           id="g82"><g
             transform="translate(0,-785.58)"
             id="g88"><text
               id="text90"
               style="font-variant:normal;font-weight:normal;font-size:9.96259975px;font-family:CMR10;-inkscape-font-specification:CMR10;writing-mode:lr-tb;fill:#000000;fill-opacity:1;fill-rule:nonzero;stroke:none"
               transform="matrix(1,0,0,-1,0,785.58)"><tspan
                 id="tspan92"
                 y="0"
                 x="0">3</tspan></text>
</g></g></g></g><g
       id="g94"><path
         id="path96"
         style="fill:#d3d3d3;fill-opacity:1;fill-rule:evenodd;stroke:#000000;stroke-width:0.40000001;stroke-linecap:butt;stroke-linejoin:round;stroke-miterlimit:10;stroke-dasharray:none;stroke-opacity:1"
         d="m 306,632 28,0 0,24 -28,0 0,-24 z" /></g><g
       transform="translate(310.01,639.019)"
       id="g98"><g
         id="g100"><g
           clip-path="url(#clipPath104)"
           id="g102"><g
             transform="translate(0,-782.037)"
             id="g108"><text
               id="text110"
               style="font-variant:normal;font-weight:normal;font-size:9.96259975px;font-family:CMR10;-inkscape-font-specification:CMR10;writing-mode:lr-tb;fill:#000000;fill-opacity:1;fill-rule:nonzero;stroke:none"
               transform="matrix(1,0,0,-1,0,784.528)"><tspan
                 id="tspan112"
                 y="0"
                 x="0 3.9292495 9.4644699 12.23208 17.213381">sd[1]</tspan></text>
</g></g></g></g><g
       id="g114"><path
         id="path116"
         style="fill:#d3d3d3;fill-opacity:1;fill-rule:evenodd;stroke:#000000;stroke-width:0.40000001;stroke-linecap:butt;stroke-linejoin:round;stroke-miterlimit:10;stroke-dasharray:none;stroke-opacity:1"
         d="m 306,604 28,0 0,24 -28,0 0,-24 z" /></g><g
       transform="translate(310.01,611.019)"
       id="g118"><g
         id="g120"><g
           clip-path="url(#clipPath124)"
           id="g122"><g
             transform="translate(0,-782.037)"
             id="g128"><text
               id="text130"
               style="font-variant:normal;font-weight:normal;font-size:9.96259975px;font-family:CMR10;-inkscape-font-specification:CMR10;writing-mode:lr-tb;fill:#000000;fill-opacity:1;fill-rule:nonzero;stroke:none"
               transform="matrix(1,0,0,-1,0,784.528)"><tspan
                 id="tspan132"
                 y="0"
                 x="0 3.9292495 9.4644699 12.23208 17.213381">sd[2]</tspan></text>
</g></g></g></g><g
       id="g134"><path
         id="path136"
         style="fill:#d3d3d3;fill-opacity:1;fill-rule:evenodd;stroke:#000000;stroke-width:0.40000001;stroke-linecap:butt;stroke-linejoin:round;stroke-miterlimit:10;stroke-dasharray:none;stroke-opacity:1"
         d="m 352,644 0,-56" /></g></g></svg>