<svg xmlns="http://www.w3.org/2000/svg" xmlns:xlink="http://www.w3.org/1999/xlink" viewBox="0 0 216 216"><defs><style>.cls-1,.cls-10,.cls-12,.cls-13,.cls-14,.cls-4,.cls-7,.cls-9{fill:none;}.cls-15,.cls-17,.cls-2,.cls-5{fill:#fff;}.cls-10,.cls-12,.cls-13,.cls-14,.cls-15,.cls-17,.cls-2,.cls-4,.cls-7,.cls-9{stroke:#231f20;}.cls-10,.cls-18,.cls-19,.cls-2,.cls-20,.cls-4,.cls-7,.cls-9{stroke-miterlimit:10;}.cls-10,.cls-15,.cls-17,.cls-2,.cls-7{stroke-width:3px;}.cls-3{clip-path:url(#clip-path);}.cls-18,.cls-19,.cls-20,.cls-4,.cls-9{stroke-width:1.5px;}.cls-6{clip-path:url(#clip-path-2);}.cls-12,.cls-13,.cls-17,.cls-7,.cls-9{stroke-linecap:round;}.cls-8{fill:#231f20;}.cls-11{clip-path:url(#clip-path-3);}.cls-12,.cls-13,.cls-14,.cls-15,.cls-17{stroke-linejoin:round;}.cls-12{stroke-width:6px;}.cls-13,.cls-14{stroke-width:3px;}.cls-16{clip-path:url(#clip-path-4);}.cls-18{fill:#d86259;stroke:#ce3a2c;}.cls-19{fill:#a977b4;stroke:#9157a3;}.cls-20{fill:#5dae49;stroke:#349a46;}</style><clipPath id="clip-path"><circle class="cls-1" cx="-128.09" cy="108.06" r="72.25"/></clipPath><clipPath id="clip-path-2"><polygon class="cls-2" points="108 9.55 67.52 18.16 34.04 42.48 13.35 78.32 9.03 119.48 21.81 158.84 49.5 189.59 87.31 206.42 128.69 206.42 166.5 189.59 194.19 158.84 206.97 119.48 202.65 78.32 181.96 42.48 148.48 18.16 108 9.55"/></clipPath><clipPath id="clip-path-3"><circle class="cls-1" cx="107.75" cy="107.91" r="72.25"/></clipPath><clipPath id="clip-path-4"><circle class="cls-1" cx="107.44" cy="108.33" r="72.25"/></clipPath></defs><title>Power Models Distribution</title><g id="Layer_5" data-name="Layer 5"><polygon class="cls-5" points="108 9.55 67.52 18.16 34.04 42.48 13.35 78.32 9.03 119.48 21.81 158.84 49.5 189.59 87.31 206.42 128.69 206.42 166.5 189.59 194.19 158.84 206.97 119.48 202.65 78.32 181.96 42.48 148.48 18.16 108 9.55"/><g class="cls-6"><line class="cls-7" x1="108" y1="-0.36" x2="108" y2="27.25"/><line class="cls-7" x1="85.47" y1="2.01" x2="91.21" y2="29.01"/><line class="cls-7" x1="63.93" y1="9.01" x2="75.16" y2="34.23"/><line class="cls-7" x1="44.31" y1="20.33" x2="60.54" y2="42.67"/><line class="cls-7" x1="27.48" y1="35.49" x2="48" y2="53.96"/><line class="cls-7" x1="14.17" y1="53.81" x2="38.08" y2="67.62"/><line class="cls-7" x1="4.95" y1="74.51" x2="31.21" y2="83.04"/><line class="cls-7" x1="0.24" y1="96.66" x2="27.7" y2="99.55"/><line class="cls-7" x1="0.24" y1="119.31" x2="27.7" y2="116.43"/><line class="cls-7" x1="4.95" y1="141.47" x2="31.21" y2="132.94"/><line class="cls-7" x1="14.17" y1="162.16" x2="38.08" y2="148.36"/><line class="cls-7" x1="27.48" y1="180.49" x2="48" y2="162.01"/><line class="cls-7" x1="44.31" y1="195.64" x2="60.54" y2="173.31"/><line class="cls-7" x1="63.93" y1="206.97" x2="75.16" y2="181.75"/><line class="cls-7" x1="85.47" y1="213.97" x2="91.21" y2="186.96"/><line class="cls-7" x1="108" y1="216.34" x2="108" y2="188.73"/><line class="cls-7" x1="130.53" y1="213.97" x2="124.79" y2="186.96"/><line class="cls-7" x1="152.07" y1="206.97" x2="140.84" y2="181.75"/><line class="cls-7" x1="171.69" y1="195.64" x2="155.46" y2="173.31"/><line class="cls-7" x1="188.52" y1="180.49" x2="168" y2="162.01"/><line class="cls-7" x1="201.83" y1="162.16" x2="177.92" y2="148.36"/><line class="cls-7" x1="211.05" y1="141.47" x2="184.79" y2="132.94"/><line class="cls-7" x1="215.76" y1="119.31" x2="188.3" y2="116.43"/><line class="cls-7" x1="215.76" y1="96.66" x2="188.3" y2="99.55"/><line class="cls-7" x1="211.05" y1="74.51" x2="184.79" y2="83.04"/><line class="cls-7" x1="201.83" y1="53.81" x2="177.92" y2="67.62"/><line class="cls-7" x1="188.52" y1="35.49" x2="168" y2="53.96"/><line class="cls-7" x1="171.69" y1="20.33" x2="155.46" y2="42.67"/><line class="cls-7" x1="152.07" y1="9.01" x2="140.84" y2="34.23"/><line class="cls-7" x1="130.53" y1="2.01" x2="124.79" y2="29.01"/><circle class="cls-8" cx="108" cy="107.99" r="1.68"/><line class="cls-9" x1="96.94" y1="0.2" x2="99.76" y2="27.67"/><line class="cls-9" x1="74.78" y1="4.86" x2="83.24" y2="31.14"/><line class="cls-9" x1="54.06" y1="14.02" x2="67.81" y2="37.97"/><line class="cls-9" x1="35.7" y1="27.29" x2="54.13" y2="47.85"/><line class="cls-9" x1="20.5" y1="44.08" x2="42.8" y2="60.37"/><line class="cls-9" x1="9.13" y1="63.67" x2="34.32" y2="74.97"/><line class="cls-9" x1="2.07" y1="85.2" x2="29.07" y2="91.01"/><line class="cls-9" x1="-0.35" y1="107.72" x2="27.26" y2="107.79"/><line class="cls-9" x1="1.96" y1="130.25" x2="28.98" y2="124.58"/><line class="cls-9" x1="8.91" y1="151.81" x2="34.16" y2="140.64"/><line class="cls-9" x1="20.19" y1="171.46" x2="42.56" y2="155.28"/><line class="cls-9" x1="35.3" y1="188.33" x2="53.83" y2="167.85"/><line class="cls-9" x1="53.59" y1="201.69" x2="67.46" y2="177.81"/><line class="cls-9" x1="74.26" y1="210.95" x2="82.86" y2="184.71"/><line class="cls-9" x1="96.41" y1="215.72" x2="99.36" y2="188.26"/><line class="cls-9" x1="119.06" y1="215.77" x2="116.24" y2="188.31"/><line class="cls-9" x1="141.22" y1="211.12" x2="132.76" y2="184.84"/><line class="cls-9" x1="161.94" y1="201.96" x2="148.19" y2="178.01"/><line class="cls-9" x1="180.3" y1="188.69" x2="161.87" y2="168.12"/><line class="cls-9" x1="195.5" y1="171.89" x2="173.2" y2="155.61"/><line class="cls-9" x1="206.87" y1="152.3" x2="181.68" y2="141.01"/><line class="cls-9" x1="213.93" y1="130.78" x2="186.93" y2="124.97"/><line class="cls-9" x1="216.35" y1="108.26" x2="188.74" y2="108.19"/><line class="cls-9" x1="214.04" y1="85.73" x2="187.02" y2="91.4"/><line class="cls-9" x1="207.09" y1="64.17" x2="181.84" y2="75.33"/><line class="cls-9" x1="195.81" y1="44.52" x2="173.44" y2="60.69"/><line class="cls-9" x1="180.7" y1="27.65" x2="162.17" y2="48.12"/><line class="cls-9" x1="162.41" y1="14.29" x2="148.54" y2="38.17"/><line class="cls-9" x1="141.74" y1="5.03" x2="133.14" y2="31.26"/><line class="cls-9" x1="119.59" y1="0.26" x2="116.64" y2="27.71"/><circle class="cls-8" cx="108" cy="107.99" r="1.68"/></g><polygon class="cls-10" points="108 9.55 67.52 18.16 34.04 42.48 13.35 78.32 9.03 119.48 21.81 158.84 49.5 189.59 87.31 206.42 128.69 206.42 166.5 189.59 194.19 158.84 206.97 119.48 202.65 78.32 181.96 42.48 148.48 18.16 108 9.55"/><circle class="cls-2" cx="108.33" cy="108.57" r="90.75"/><path class="cls-8" d="M26.13,87.79l1.09-3.85a2.65,2.65,0,1,1,5.09,1.44l-.53,1.87,2.61.74-.56,2Zm2.69-3.11-.46,1.6,1.74.49.45-1.6A.88.88,0,0,0,30,84,.89.89,0,0,0,28.82,84.68Z"/><path class="cls-8" d="M30.3,74.93a4.14,4.14,0,1,1,2.15,5.56A4.06,4.06,0,0,1,30.3,74.93Zm1.68.71a2.32,2.32,0,1,0,3-1.1A2.15,2.15,0,0,0,32,75.64Z"/><path class="cls-8" d="M38.45,65.79l3.67,3.63L41,71.29l-8-2.17,1.2-2,5.2,1.71-3.87-3.93.82-1.35,5.28,1.58-4-3.78,1.2-2,5.68,6.1-1.13,1.87Z"/><path class="cls-8" d="M40.49,57.31l3.66-4.59,1.36,1.08-2.37,3,1,.83L46.5,54.7l1.37,1.1-2.32,2.9,1.13.9,2.37-3,1.36,1.09L46.75,62.3Z"/><path class="cls-8" d="M52.12,52l-.75.75,1.92,1.91L51.84,56.1l-5.67-5.65L49,47.61a2.58,2.58,0,0,1,3.85-.09,2.44,2.44,0,0,1,.57,2.83l3.24.92L55,52.94ZM50,49.06l-1.15,1.16,1.27,1.27,1.15-1.16A.9.9,0,1,0,50,49.06Z"/><path class="cls-8" d="M64.75,38.38,66.08,44l-.75.51-4.69-3.36,3,4.48-1.72,1.15-4.46-6.63,2.37-1.6,3.92,2.83-1.14-4.7L65,35.07l4.46,6.63-1.71,1.16Z"/><path class="cls-8" d="M71.52,31.54a4.14,4.14,0,1,1-2,5.59A4.06,4.06,0,0,1,71.52,31.54Zm.79,1.64a2.32,2.32,0,1,0,3,1.14A2.16,2.16,0,0,0,72.31,33.18Z"/><path class="cls-8" d="M78.21,28.7l3.19-1.06c2.39-.8,4.59.06,5.38,2.42s-.45,4.37-2.83,5.17l-3.2,1.06Zm5.16,4.82a2.11,2.11,0,0,0,1.4-2.79A2,2,0,0,0,82,29.34l-1.24.42,1.4,4.17Z"/><path class="cls-8" d="M88.39,25.57l5.74-1.19.36,1.7-3.73.77L91,28.16l3.65-.76L95,29.12l-3.64.75.29,1.41,3.73-.77.35,1.7L90,33.41Z"/><path class="cls-8" d="M97.1,24l2.05-.22.65,6.17,3.2-.34.18,1.79-5.25.55Z"/><path class="cls-8" d="M105.7,28.59a3.64,3.64,0,0,0,2.57,1c.71,0,1.14-.32,1.13-.71s-.53-.62-1.38-.79c-1.32-.24-3.18-.55-3.21-2.44,0-1.35,1.1-2.53,3.15-2.56a4.88,4.88,0,0,1,3.27,1.06l-1.1,1.49a3.73,3.73,0,0,0-2.27-.79c-.69,0-.94.3-.94.64s.5.56,1.39.71c1.33.26,3.16.61,3.19,2.42,0,1.61-1.15,2.69-3.29,2.73a4.93,4.93,0,0,1-3.58-1.21Z"/><path class="cls-8" d="M119,23.79l3.31.55c2.49.42,4,2.21,3.62,4.66s-2.45,3.66-4.93,3.24l-3.33-.55Zm2.29,6.68a2.12,2.12,0,0,0,2.55-1.82A2.05,2.05,0,0,0,122,26.12l-1.29-.21L120,30.25Z"/><path class="cls-8" d="M129.24,25.79l2,.53-2.06,7.74-2-.53Z"/><path class="cls-8" d="M133,32.37a3.58,3.58,0,0,0,2,1.86c.66.23,1.17.1,1.3-.26s-.27-.78-1-1.23c-1.16-.7-2.78-1.63-2.14-3.42.45-1.26,1.91-2,3.85-1.28a4.92,4.92,0,0,1,2.68,2.14l-1.56,1a3.79,3.79,0,0,0-1.84-1.54c-.65-.23-1-.06-1.11.27s.28.7,1.06,1.15c1.15.71,2.73,1.68,2.12,3.39-.54,1.51-2,2.12-4,1.39a4.89,4.89,0,0,1-2.91-2.39Z"/><path class="cls-8" d="M143.57,32.8l-2-1,.78-1.62,5.89,2.84-.79,1.62-2-1-2.7,5.59-1.86-.9Z"/><path class="cls-8" d="M150.55,40.59l-.89-.57-1.45,2.3-1.75-1.1,4.27-6.78,3.39,2.14a2.58,2.58,0,0,1,.94,3.74,2.43,2.43,0,0,1-2.63,1.18l-.18,3.36-2-1.26Zm2.38-2.71L151.55,37l-1,1.52,1.38.87a.91.91,0,1,0,1-1.53Z"/><path class="cls-8" d="M158.77,39.79,160.41,41l-4.83,6.37-1.65-1.25Z"/><path class="cls-8" d="M162.94,43l3.35,3.06a2.09,2.09,0,0,1,.36,3.08,1.78,1.78,0,0,1-2.24.44,1.91,1.91,0,0,1-.19,2.47,2.13,2.13,0,0,1-3.2,0l-3.47-3.15Zm-1.17,7.44a.72.72,0,0,0,1.08,0,.74.74,0,0,0-.08-1.09l-1.53-1.39-1,1.1ZM163.86,48a.68.68,0,0,0,1,0,.67.67,0,0,0-.07-1l-1.48-1.35-.93,1Z"/><path class="cls-8" d="M170.28,49.93l1.37,1.59-3.57,3.06A1.62,1.62,0,1,0,170.19,57L173.75,54l1.36,1.6-3.6,3.09c-1.52,1.3-3.32,1.35-5-.6s-1.34-3.75.15-5Z"/><path class="cls-8" d="M176.6,60.73l-1.25-1.86,1.49-1,3.66,5.42-1.49,1-1.25-1.85-5.15,3.47-1.15-1.71Z"/><path class="cls-8" d="M181.83,65.61l1,1.8-7,3.92-1-1.8Z"/><path class="cls-8" d="M186.08,73.72a4.14,4.14,0,1,1-5.52-2.25A4.06,4.06,0,0,1,186.08,73.72Zm-1.67.74a2.32,2.32,0,1,0-1.24,2.92A2.16,2.16,0,0,0,184.41,74.46Z"/><path class="cls-8" d="M186.23,83.44l-4.64,1.36-.58-2,7.69-2.24.59,2L185.77,87l4.43-1.28.58,2L183.09,90l-.55-1.91Z"/><circle class="cls-10" cx="108.07" cy="108.11" r="72.25"/><circle class="cls-1" cx="108.29" cy="107.45" r="72.25"/><path class="cls-8" d="M45.57,153.73l1,1.3-3.91,3,1.54,2-1.13.86-2.53-3.33Z"/><path class="cls-8" d="M47.69,164.78l-1.76-2-.93.39-1.19-1.32,6.31-2.45L51.49,161l-3.11,6-1.19-1.32Zm-.45-2.57,1.18,1.33,1.32-2.38Z"/><path class="cls-8" d="M53.32,166.42l-2.6,2.81-1.2-1.11,4.29-4.65,1.24,1.14L54.47,169l2.47-2.67,1.21,1.11-4.3,4.65-1.16-1.07Z"/><path class="cls-8" d="M59.48,168.56l1.3,1-3,3.87,2,1.56-.87,1.13-3.31-2.57Z"/><path class="cls-8" d="M163.93,169.91l-2,1.74.39.93L161,173.76l-2.37-6.34,1.54-1.35,6,3.18-1.34,1.17Zm-2.57.42,1.34-1.17-2.36-1.35Z"/><path class="cls-8" d="M165.64,164.3l2.78,2.62-1.12,1.19-4.6-4.34,1.16-1.22,4.41.63-2.65-2.5,1.13-1.2,4.6,4.35L170.27,165Z"/><path class="cls-8" d="M171.4,160.46a2.88,2.88,0,0,0,1.91-1.08c.35-.44.38-.85.14-1s-.65,0-1.18.45c-.81.69-1.93,1.68-3.1.75-.84-.66-1-1.94,0-3.21a3.85,3.85,0,0,1,2.29-1.48l.36,1.42a3,3,0,0,0-1.62,1c-.34.43-.3.73-.08.9s.59,0,1.13-.5c.82-.69,2-1.64,3.08-.75s1.08,2.05,0,3.39a3.87,3.87,0,0,1-2.53,1.58Z"/><path class="cls-8" d="M171.71,153.11l.93-1.35,5.2,3.6-.93,1.35Z"/><circle class="cls-1" cx="107.75" cy="107.91" r="72.25"/><g class="cls-11"><path class="cls-4" d="M-4.14,86.67S32.62,97.21,77.71,72.28C117,80.92,179.42,57.13,208.33,42.11"/><path class="cls-4" d="M-3.54,112s39.79,9.57,84.88-15.36c39.72,20.91,91.14-1.5,120-16.51"/></g><line class="cls-12" x1="82.34" y1="96.89" x2="131.37" y2="124.42"/><line class="cls-13" x1="88.21" y1="92.61" x2="88.27" y2="98.82"/><line class="cls-13" x1="129.46" y1="114.98" x2="129.52" y2="121.2"/><line class="cls-12" x1="72.64" y1="69.27" x2="147.14" y2="111.88"/><line class="cls-13" x1="144.22" y1="101.81" x2="144.28" y2="108.02"/><line class="cls-13" x1="137.23" y1="97.59" x2="137.3" y2="103.81"/><line class="cls-13" x1="82.54" y1="65.55" x2="82.6" y2="71.76"/><line class="cls-13" x1="76.16" y1="62.84" x2="76.22" y2="69.06"/><line class="cls-14" x1="79.74" y1="75.13" x2="102.95" y2="99.44"/><line class="cls-14" x1="84.12" y1="98.46" x2="107.33" y2="122.77"/><line class="cls-14" x1="138.25" y1="108.46" x2="109.4" y2="101.7"/><line class="cls-14" x1="129.93" y1="125.52" x2="104.87" y2="119.64"/><polygon class="cls-15" points="114.44 190.01 102.86 190.13 100.88 66.61 114.24 69.67 114.44 190.01"/><ellipse class="cls-2" cx="107.74" cy="67.27" rx="6.65" ry="4.31"/><path class="cls-4" d="M36.89,155.49a85.64,85.64,0,0,1-12.67-62.1"/><path class="cls-4" d="M160.54,176.23a85.5,85.5,0,0,1-99.72,3.39"/><path class="cls-4" d="M40.55,153.27a80.81,80.81,0,0,1-13.41-44.7,81.65,81.65,0,0,1,1.33-14.69"/><path class="cls-4" d="M157.87,172.89a81.22,81.22,0,0,1-94.92,3"/><path class="cls-4" d="M187.74,91.62A81.34,81.34,0,0,1,177.56,151"/><path class="cls-4" d="M43.77,150.94A77.27,77.27,0,0,1,32.41,94.3"/><path class="cls-4" d="M155.5,169.51a77.19,77.19,0,0,1-90.34,3.06"/><path class="cls-4" d="M183.7,92.63a78.36,78.36,0,0,1,1.65,15.59A76.88,76.88,0,0,1,174,148.88"/><path class="cls-4" d="M192,91.31a86,86,0,0,1,1.73,17.18,85,85,0,0,1-12.35,44.27"/><circle class="cls-1" cx="107.44" cy="108.33" r="72.25"/><g class="cls-16"><path class="cls-4" d="M9,155.49s67.52-3.24,136-44.83c38.54,0,81.55-35.9,107.09-55.5"/><path class="cls-4" d="M6.62,155.69S62.91,166,131.37,124.42c50,4,97.59-44.5,126.5-59.52"/></g><path class="cls-17" d="M105.35,180.33A72.29,72.29,0,0,1,94.14,179c-2.37,9.68-5.07,20.7-6.73,27.43h41.31c-.83-3.35-1.91-7.77-3.09-12.56s-2.44-10-3.63-14.83A72.72,72.72,0,0,1,105.35,180.33Z"/><circle class="cls-18" cx="102.93" cy="197.66" r="3.75"/><circle class="cls-19" cx="113.2" cy="197.66" r="3.75"/><circle class="cls-20" cx="108.07" cy="189.08" r="3.75"/></g></svg>