<?xml version="1.0" encoding="UTF-8" standalone="no"?>
<!-- Created with Inkscape (http://www.inkscape.org/) -->

<svg
   version="1.1"
   id="svg6186"
   xml:space="preserve"
   width="325.86667"
   height="193.60001"
   viewBox="0 0 325.86667 193.60001"
   xmlns="http://www.w3.org/2000/svg"
   xmlns:svg="http://www.w3.org/2000/svg"><defs
     id="defs6190"><clipPath
       clipPathUnits="userSpaceOnUse"
       id="clipPath6214"><path
         d="M -1,-1 H 72.971 V 6.535 H -1 Z"
         id="path6212" /></clipPath><clipPath
       clipPathUnits="userSpaceOnUse"
       id="clipPath6270"><path
         d="M -1,-1 H 19.853 V 6.446 H -1 Z"
         id="path6268" /></clipPath><clipPath
       clipPathUnits="userSpaceOnUse"
       id="clipPath6290"><path
         d="M -1,-1 H 26.242 V 7.996 H -1 Z"
         id="path6288" /></clipPath><clipPath
       clipPathUnits="userSpaceOnUse"
       id="clipPath6374"><path
         d="M -1,-1 H 25.484 V 8.605 H -1 Z"
         id="path6372" /></clipPath><clipPath
       clipPathUnits="userSpaceOnUse"
       id="clipPath6440"><path
         d="M -1,-1 H 20.841 V 5.981 H -1 Z"
         id="path6438" /></clipPath><clipPath
       clipPathUnits="userSpaceOnUse"
       id="clipPath6460"><path
         d="M -1,-1 H 1 V 1 H -1 Z"
         id="path6458" /></clipPath><clipPath
       clipPathUnits="userSpaceOnUse"
       id="clipPath6470"><path
         d="M -1,-1 H 1 V 1 H -1 Z"
         id="path6468" /></clipPath><clipPath
       clipPathUnits="userSpaceOnUse"
       id="clipPath6480"><path
         d="M -1,-1 H 28.27 V 8.085 H -1 Z"
         id="path6478" /></clipPath><clipPath
       clipPathUnits="userSpaceOnUse"
       id="clipPath6534"><path
         d="M -1,-1 H 26.17 V 8.085 H -1 Z"
         id="path6532" /></clipPath><clipPath
       clipPathUnits="userSpaceOnUse"
       id="clipPath6550"><path
         d="M -1,-1 H 10.714 V 8.605 H -1 Z"
         id="path6548" /></clipPath><clipPath
       clipPathUnits="userSpaceOnUse"
       id="clipPath6570"><path
         d="M -1,-1 H 12.006 V 8.605 H -1 Z"
         id="path6568" /></clipPath><clipPath
       clipPathUnits="userSpaceOnUse"
       id="clipPath6590"><path
         d="M -1,-1 H 7.587 V 4.013 H -1 Z"
         id="path6588" /></clipPath><clipPath
       clipPathUnits="userSpaceOnUse"
       id="clipPath6606"><path
         d="M -1,-1 H 7.587 V 4.013 H -1 Z"
         id="path6604" /></clipPath><clipPath
       clipPathUnits="userSpaceOnUse"
       id="clipPath6622"><path
         d="M -1,-1 H 7.587 V 6.646 H -1 Z"
         id="path6620" /></clipPath><clipPath
       clipPathUnits="userSpaceOnUse"
       id="clipPath6638"><path
         d="M -1,-1 H 11.68 V 7.996 H -1 Z"
         id="path6636" /></clipPath><clipPath
       clipPathUnits="userSpaceOnUse"
       id="clipPath6658"><path
         d="M -1,-1 H 10.388 V 7.443 H -1 Z"
         id="path6656" /></clipPath><clipPath
       clipPathUnits="userSpaceOnUse"
       id="clipPath6678"><path
         d="M -1,-1 H 7.587 V 6.646 H -1 Z"
         id="path6676" /></clipPath><clipPath
       clipPathUnits="userSpaceOnUse"
       id="clipPath6694"><path
         d="M -1,-1 H 30.411 V 6.535 H -1 Z"
         id="path6692" /></clipPath><clipPath
       clipPathUnits="userSpaceOnUse"
       id="clipPath6710"><path
         d="M -1,-1 H 37.703 V 7.895 H -1 Z"
         id="path6708" /></clipPath></defs><g
     id="g6192"
     transform="matrix(1.3333333,0,0,-1.3333333,-47.733333,1073.3333)"><g
       id="g6194"><path
         d="m 184,736 c 6.627,0 12,-5.373 12,-12 0,-6.627 -5.373,-12 -12,-12"
         style="fill:none;stroke:#8b0000;stroke-width:0.8;stroke-linecap:butt;stroke-linejoin:round;stroke-miterlimit:10;stroke-dasharray:none;stroke-opacity:1"
         id="path6196" /></g><g
       id="g6198"><path
         d="m 72,792 v -64 h 100 v 64 z"
         style="fill:none;stroke:#2e8b57;stroke-width:0.4;stroke-linecap:butt;stroke-linejoin:round;stroke-miterlimit:10;stroke-dasharray:none;stroke-opacity:1"
         id="path6200" /></g><g
       id="g6202"><path
         d="m 72,720 v -56 h 100 v 56 z"
         style="fill:none;stroke:#000080;stroke-width:0.4;stroke-linecap:butt;stroke-linejoin:round;stroke-miterlimit:10;stroke-dasharray:none;stroke-opacity:1"
         id="path6204" /></g><g
       id="g6206"
       transform="translate(76,668)"><g
         id="g6208"><g
           id="g6210"
           clip-path="url(#clipPath6214)"><g
             id="g6216"
             transform="translate(0,-786.465)"><text
               transform="matrix(1,0,0,-1,0,786.465)"
               style="font-variant:normal;font-weight:normal;font-size:7.9701px;font-family:CMR8;-inkscape-font-specification:CMR8;writing-mode:lr-tb;fill:#000080;fill-opacity:1;fill-rule:nonzero;stroke:none"
               id="text6220"><tspan
                 x="0 5.7591944 10.228827 13.522072 17.285553 20.585972 25.290722 29.525236 34.698627 40.457821 49.621841 56.67857 61.152187 65.856934 69.620415"
                 y="0"
                 id="tspan6218">ExternalEVmodel</tspan></text></g></g></g></g><g
       id="g6222"><path
         d="m 124,690 h 8"
         style="fill:#d3d3d3;fill-opacity:1;fill-rule:evenodd;stroke:#000000;stroke-width:0.4;stroke-linecap:butt;stroke-linejoin:round;stroke-miterlimit:10;stroke-dasharray:none;stroke-opacity:1"
         id="path6224" /></g><g
       id="g6226"><path
         d="m 160,696 v -12 h -24 v 12 z"
         style="fill:none;stroke:#a9a9a9;stroke-width:0.4;stroke-linecap:butt;stroke-linejoin:round;stroke-miterlimit:10;stroke-dasharray:none;stroke-opacity:1"
         id="path6228" /></g><g
       id="g6230"><path
         d="m 88,696 -8,-4 v -4 h 44 v 8"
         style="fill:#d3d3d3;fill-opacity:1;fill-rule:evenodd;stroke:#000000;stroke-width:0.4;stroke-linecap:butt;stroke-linejoin:round;stroke-miterlimit:10;stroke-dasharray:none;stroke-opacity:1"
         id="path6232" /></g><g
       id="g6234"><path
         d="m 92,688 c 0,2.209 -1.7909,4 -4,4 -2.2091,0 -4,-1.791 -4,-4 0,-2.209 1.7909,-4 4,-4 2.2091,0 4,1.791 4,4"
         style="fill:#000000;fill-opacity:1;fill-rule:evenodd;stroke:#000000;stroke-width:0.4;stroke-linecap:butt;stroke-linejoin:round;stroke-miterlimit:10;stroke-dasharray:none;stroke-opacity:1"
         id="path6236" /></g><g
       id="g6238"><path
         d="m 120,688 c 0,2.209 -1.791,4 -4,4 -2.209,0 -4,-1.791 -4,-4 0,-2.209 1.791,-4 4,-4 2.209,0 4,1.791 4,4"
         style="fill:#000000;fill-opacity:1;fill-rule:evenodd;stroke:#000000;stroke-width:0.4;stroke-linecap:butt;stroke-linejoin:round;stroke-miterlimit:10;stroke-dasharray:none;stroke-opacity:1"
         id="path6240" /></g><g
       id="g6242"><path
         d="m 124,696 c -8.837,9.941 -24.0589,10.837 -34,2 -0.7053,-0.627 -1.3731,-1.295 -2,-2"
         style="fill:#d3d3d3;fill-opacity:1;fill-rule:evenodd;stroke:#000000;stroke-width:0.4;stroke-linecap:butt;stroke-linejoin:round;stroke-miterlimit:10;stroke-dasharray:none;stroke-opacity:1"
         id="path6244" /></g><g
       id="g6246"><g
         id="g6248"><path
           d="m 91,688 c 0,1.657 -1.3431,3 -3,3 -1.6569,0 -3,-1.343 -3,-3 0,-1.657 1.3431,-3 3,-3 1.6569,0 3,1.343 3,3"
           style="fill:#ffffff;fill-opacity:1;fill-rule:evenodd;stroke:none"
           id="path6250" /></g></g><g
       id="g6252"><g
         id="g6254"><path
           d="m 119,688 c 0,1.657 -1.343,3 -3,3 -1.657,0 -3,-1.343 -3,-3 0,-1.657 1.343,-3 3,-3 1.657,0 3,1.343 3,3"
           style="fill:#ffffff;fill-opacity:1;fill-rule:evenodd;stroke:none"
           id="path6256" /></g></g><g
       id="g6258"><path
         d="m 136,692 c -1.105,1.105 -2.895,1.105 -4,0 -1.105,-1.105 -1.105,-2.895 0,-4 1.105,-1.105 2.895,-1.105 4,0"
         style="fill:#d3d3d3;fill-opacity:1;fill-rule:evenodd;stroke:#000000;stroke-width:0.4;stroke-linecap:butt;stroke-linejoin:round;stroke-miterlimit:10;stroke-dasharray:none;stroke-opacity:1"
         id="path6260" /></g><g
       id="g6262"
       transform="translate(138.573,687.277)"><g
         id="g6264"><g
           id="g6266"
           clip-path="url(#clipPath6270)"><g
             id="g6272"
             transform="translate(0,-786.554)"><text
               transform="matrix(1,0,0,-1,0,786.554)"
               style="font-variant:normal;font-weight:normal;font-size:7.9701px;font-family:CMR8;-inkscape-font-specification:CMR8;writing-mode:lr-tb;fill:#000000;fill-opacity:1;fill-rule:nonzero;stroke:none"
               id="text6276"><tspan
                 x="0 5.7591944"
                 y="0"
                 id="tspan6274">EV</tspan></text><text
               transform="matrix(1,0,0,-1,14.925,786.554)"
               style="font-variant:normal;font-weight:normal;font-size:7.9701px;font-family:CMMI8;-inkscape-font-specification:CMMI8;writing-mode:lr-tb;fill:#000000;fill-opacity:1;fill-rule:nonzero;stroke:none"
               id="text6280"><tspan
                 x="0"
                 y="0"
                 id="tspan6278">e</tspan></text></g></g></g></g><g
       id="g6282"
       transform="translate(139.379,705.778)"><g
         id="g6284"><g
           id="g6286"
           clip-path="url(#clipPath6290)"><g
             id="g6292"
             transform="translate(0,-785.004)"><text
               transform="matrix(1,0,0,-1,0,786.554)"
               style="font-variant:normal;font-weight:normal;font-size:7.9701px;font-family:CMMI8;-inkscape-font-specification:CMMI8;writing-mode:lr-tb;fill:#000080;fill-opacity:1;fill-rule:nonzero;stroke:none"
               id="text6296"><tspan
                 x="0"
                 y="0"
                 id="tspan6294">P</tspan></text><text
               transform="matrix(1,0,0,-1,5.369,785.557)"
               style="font-variant:normal;font-weight:normal;font-size:5.9776px;font-family:CMMI6;-inkscape-font-specification:CMMI6;writing-mode:lr-tb;fill:#000080;fill-opacity:1;fill-rule:nonzero;stroke:none"
               id="text6300"><tspan
                 x="0"
                 y="0"
                 id="tspan6298">e</tspan></text><text
               transform="matrix(1,0,0,-1,9.388,786.554)"
               style="font-variant:normal;font-weight:normal;font-size:7.9701px;font-family:CMR8;-inkscape-font-specification:CMR8;writing-mode:lr-tb;fill:#000080;fill-opacity:1;fill-rule:nonzero;stroke:none"
               id="text6304"><tspan
                 x="0"
                 y="0"
                 id="tspan6302">,</tspan></text><text
               transform="matrix(1,0,0,-1,14.563,786.554)"
               style="font-variant:normal;font-weight:normal;font-size:7.9701px;font-family:CMMI8;-inkscape-font-specification:CMMI8;writing-mode:lr-tb;fill:#000080;fill-opacity:1;fill-rule:nonzero;stroke:none"
               id="text6308"><tspan
                 x="0"
                 y="0"
                 id="tspan6306">Q</tspan></text><text
               transform="matrix(1,0,0,-1,21.224,785.557)"
               style="font-variant:normal;font-weight:normal;font-size:5.9776px;font-family:CMMI6;-inkscape-font-specification:CMMI6;writing-mode:lr-tb;fill:#000080;fill-opacity:1;fill-rule:nonzero;stroke:none"
               id="text6312"><tspan
                 x="0"
                 y="0"
                 id="tspan6310">e</tspan></text></g></g></g></g><g
       id="g6314"><path
         d="m 152,704 v -8"
         style="fill:#d3d3d3;fill-opacity:1;fill-rule:evenodd;stroke:#000080;stroke-width:0.8;stroke-linecap:butt;stroke-linejoin:round;stroke-miterlimit:10;stroke-dasharray:none;stroke-opacity:1"
         id="path6316" /><g
         id="g6318"><g
           id="g6320"><path
             d="m 152,696 1.665,5 h -3.33 z"
             style="fill:#000080;fill-opacity:1;fill-rule:evenodd;stroke:#000080;stroke-width:0.8;stroke-linecap:butt;stroke-linejoin:round;stroke-miterlimit:10;stroke-dasharray:none;stroke-opacity:1"
             id="path6322" /></g></g></g><g
       id="g6324"><path
         d="M 128,774 V 750"
         style="fill:none;stroke:#d3d3d3;stroke-width:0.8;stroke-linecap:butt;stroke-linejoin:round;stroke-miterlimit:10;stroke-dasharray:none;stroke-opacity:1"
         id="path6326" /></g><g
       id="g6328"><path
         d="m 112,772 h 16"
         style="fill:none;stroke:#000000;stroke-width:0.4;stroke-linecap:butt;stroke-linejoin:round;stroke-miterlimit:10;stroke-dasharray:none;stroke-opacity:1"
         id="path6330" /></g><g
       id="g6332"><path
         d="m 112,752 h 16"
         style="fill:none;stroke:#000000;stroke-width:0.4;stroke-linecap:butt;stroke-linejoin:round;stroke-miterlimit:10;stroke-dasharray:none;stroke-opacity:1"
         id="path6334" /></g><g
       id="g6336"><g
         id="g6338"><path
           d="m 128.66,752 c 0,0.365 -0.295,0.66 -0.66,0.66 -0.365,0 -0.66,-0.295 -0.66,-0.66 0,-0.365 0.295,-0.66 0.66,-0.66 0.365,0 0.66,0.295 0.66,0.66"
           style="fill:#000000;fill-opacity:1;fill-rule:evenodd;stroke:none"
           id="path6340" /></g></g><g
       id="g6342"><path
         d="m 112,758.667 h 16"
         style="fill:none;stroke:#000000;stroke-width:0.4;stroke-linecap:butt;stroke-linejoin:round;stroke-miterlimit:10;stroke-dasharray:none;stroke-opacity:1"
         id="path6344" /></g><g
       id="g6346"><g
         id="g6348"><path
           d="m 128.66,758.667 c 0,0.364 -0.295,0.66 -0.66,0.66 -0.365,0 -0.66,-0.296 -0.66,-0.66 0,-0.365 0.295,-0.66 0.66,-0.66 0.365,0 0.66,0.295 0.66,0.66"
           style="fill:#000000;fill-opacity:1;fill-rule:evenodd;stroke:none"
           id="path6350" /></g></g><g
       id="g6352"><path
         d="m 112,765.333 h 16"
         style="fill:none;stroke:#000000;stroke-width:0.4;stroke-linecap:butt;stroke-linejoin:round;stroke-miterlimit:10;stroke-dasharray:none;stroke-opacity:1"
         id="path6354" /></g><g
       id="g6356"><g
         id="g6358"><path
           d="m 128.66,765.333 c 0,0.365 -0.295,0.66 -0.66,0.66 -0.365,0 -0.66,-0.295 -0.66,-0.66 0,-0.364 0.295,-0.66 0.66,-0.66 0.365,0 0.66,0.296 0.66,0.66"
           style="fill:#000000;fill-opacity:1;fill-rule:evenodd;stroke:none"
           id="path6360" /></g></g><g
       id="g6362"><path
         d="m 116,780 4,-4 v -28 l -4,-4 H 84 l -4,4 v 28 l 4,4 z"
         style="fill:#ffffff;fill-opacity:1;fill-rule:evenodd;stroke:#a9a9a9;stroke-width:0.4;stroke-linecap:butt;stroke-linejoin:round;stroke-miterlimit:10;stroke-dasharray:none;stroke-opacity:1"
         id="path6364" /></g><g
       id="g6366"
       transform="translate(141.649,737.168)"><g
         id="g6368"><g
           id="g6370"
           clip-path="url(#clipPath6374)"><g
             id="g6376"
             transform="translate(0,-784.395)"><text
               transform="matrix(1,0,0,-1,0,786.554)"
               style="font-variant:normal;font-weight:normal;font-size:7.9701px;font-family:CMMI8;-inkscape-font-specification:CMMI8;writing-mode:lr-tb;fill:#2e8b57;fill-opacity:1;fill-rule:nonzero;stroke:none"
               id="text6380"><tspan
                 x="0"
                 y="0"
                 id="tspan6378">P</tspan></text><text
               transform="matrix(1,0,0,-1,5.369,785.557)"
               style="font-variant:normal;font-weight:normal;font-size:5.9776px;font-family:CMMI6;-inkscape-font-specification:CMMI6;writing-mode:lr-tb;fill:#2e8b57;fill-opacity:1;fill-rule:nonzero;stroke:none"
               id="text6384"><tspan
                 x="0"
                 y="0"
                 id="tspan6382">g</tspan></text><text
               transform="matrix(1,0,0,-1,9.714,786.554)"
               style="font-variant:normal;font-weight:normal;font-size:7.9701px;font-family:CMMI8;-inkscape-font-specification:CMMI8;writing-mode:lr-tb;fill:#2e8b57;fill-opacity:1;fill-rule:nonzero;stroke:none"
               id="text6388"><tspan
                 x="0 3.7626841"
                 y="0"
                 id="tspan6386">,Q</tspan></text><text
               transform="matrix(1,0,0,-1,20.139,785.557)"
               style="font-variant:normal;font-weight:normal;font-size:5.9776px;font-family:CMMI6;-inkscape-font-specification:CMMI6;writing-mode:lr-tb;fill:#2e8b57;fill-opacity:1;fill-rule:nonzero;stroke:none"
               id="text6392"><tspan
                 x="0"
                 y="0"
                 id="tspan6390">g</tspan></text></g></g></g></g><g
       id="g6394"><g
         id="g6396"><path
           d="m 128.66,772 c 0,0.365 -0.295,0.66 -0.66,0.66 -0.365,0 -0.66,-0.295 -0.66,-0.66 0,-0.365 0.295,-0.66 0.66,-0.66 0.365,0 0.66,0.295 0.66,0.66"
           style="fill:#000000;fill-opacity:1;fill-rule:evenodd;stroke:none"
           id="path6398" /></g></g><g
       id="g6400"><path
         d="m 148,768 v 4 h -20"
         style="fill:none;stroke:#000000;stroke-width:0.4;stroke-linecap:butt;stroke-linejoin:round;stroke-miterlimit:10;stroke-dasharray:none;stroke-opacity:1"
         id="path6402" /></g><g
       id="g6404"><path
         d="m 128,752 h 20 v 4"
         style="fill:none;stroke:#000000;stroke-width:0.4;stroke-linecap:butt;stroke-linejoin:round;stroke-miterlimit:10;stroke-dasharray:none;stroke-opacity:1"
         id="path6406" /></g><g
       id="g6408"><path
         d="m 136,772 h 4 v 0"
         style="fill:none;stroke:#000000;stroke-width:0.4;stroke-linecap:butt;stroke-linejoin:round;stroke-miterlimit:10;stroke-dasharray:none;stroke-opacity:1"
         id="path6410" /><g
         id="g6412"><g
           id="g6414"><path
             d="m 136,772 3,-0.999 v 1.998 z"
             style="fill:#000000;fill-opacity:1;fill-rule:evenodd;stroke:#000000;stroke-width:0.4;stroke-linecap:butt;stroke-linejoin:round;stroke-miterlimit:10;stroke-dasharray:none;stroke-opacity:1"
             id="path6416" /></g></g></g><g
       id="g6418"><path
         d="m 140,752 h -4 4"
         style="fill:none;stroke:#000000;stroke-width:0.4;stroke-linecap:butt;stroke-linejoin:round;stroke-miterlimit:10;stroke-dasharray:none;stroke-opacity:1"
         id="path6420" /><g
         id="g6422"><g
           id="g6424"><path
             d="m 140,752 -3,0.999 v -1.998 z"
             style="fill:#000000;fill-opacity:1;fill-rule:evenodd;stroke:#000000;stroke-width:0.4;stroke-linecap:butt;stroke-linejoin:round;stroke-miterlimit:10;stroke-dasharray:none;stroke-opacity:1"
             id="path6426" /></g></g></g><g
       id="g6428"><path
         d="m 136,768 v -12 h 24 v 12 z"
         style="fill:#ffffff;fill-opacity:1;fill-rule:evenodd;stroke:#a9a9a9;stroke-width:0.4;stroke-linecap:butt;stroke-linejoin:round;stroke-miterlimit:10;stroke-dasharray:none;stroke-opacity:1"
         id="path6430" /></g><g
       id="g6432"
       transform="translate(138.079,759.51)"><g
         id="g6434"><g
           id="g6436"
           clip-path="url(#clipPath6440)"><g
             id="g6442"
             transform="translate(0,-787.019)"><text
               transform="matrix(1,0,0,-1,0,788.569)"
               style="font-variant:normal;font-weight:normal;font-size:7.9701px;font-family:CMR8;-inkscape-font-specification:CMR8;writing-mode:lr-tb;fill:#000000;fill-opacity:1;fill-rule:nonzero;stroke:none"
               id="text6446"><tspan
                 x="0 4.2345142 7.9979954"
                 y="0"
                 id="tspan6444">gen</tspan></text><text
               transform="matrix(1,0,0,-1,15.525,788.569)"
               style="font-variant:normal;font-weight:normal;font-size:7.9701px;font-family:CMMI8;-inkscape-font-specification:CMMI8;writing-mode:lr-tb;fill:#000000;fill-opacity:1;fill-rule:nonzero;stroke:none"
               id="text6450"><tspan
                 x="0"
                 y="0"
                 id="tspan6448">g</tspan></text></g></g></g></g><g
       id="g6452"
       transform="translate(152,804)"><g
         id="g6454"><g
           id="g6456"
           clip-path="url(#clipPath6460)" /></g></g><g
       id="g6462"
       transform="translate(152,744)"><g
         id="g6464"><g
           id="g6466"
           clip-path="url(#clipPath6470)" /></g></g><g
       id="g6472"
       transform="translate(76,782.45)"><g
         id="g6474"><g
           id="g6476"
           clip-path="url(#clipPath6480)"><g
             id="g6482"
             transform="translate(0,-784.915)"><text
               transform="matrix(1,0,0,-1,0,786.465)"
               style="font-variant:normal;font-weight:normal;font-size:7.9701px;font-family:CMR8;-inkscape-font-specification:CMR8;writing-mode:lr-tb;fill:#2e8b57;fill-opacity:1;fill-rule:nonzero;stroke:none"
               id="text6486"><tspan
                 x="0 5.7591944 13.513305 19.977852 22.329828 24.917721"
                 y="0"
                 id="tspan6484">PMD.jl</tspan></text></g></g></g></g><g
       id="g6488"><path
         d="m 152,748 v 8"
         style="fill:#d3d3d3;fill-opacity:1;fill-rule:evenodd;stroke:#2e8b57;stroke-width:0.8;stroke-linecap:butt;stroke-linejoin:round;stroke-miterlimit:10;stroke-dasharray:none;stroke-opacity:1"
         id="path6490" /><g
         id="g6492"><g
           id="g6494"><path
             d="m 152,756 -1.665,-5 h 3.33 z"
             style="fill:#2e8b57;fill-opacity:1;fill-rule:evenodd;stroke:#2e8b57;stroke-width:0.8;stroke-linecap:butt;stroke-linejoin:round;stroke-miterlimit:10;stroke-dasharray:none;stroke-opacity:1"
             id="path6496" /></g></g></g><g
       id="g6498"><path
         d="m 192,742 v -36 h 52 v 36 z"
         style="fill:#efefef;fill-opacity:1;fill-rule:evenodd;stroke:#8b0000;stroke-width:0.4;stroke-linecap:butt;stroke-linejoin:round;stroke-miterlimit:10;stroke-dasharray:none;stroke-opacity:1"
         id="path6500" /></g><g
       id="g6502"><path
         d="M 184,736 H 172"
         style="fill:none;stroke:#8b0000;stroke-width:0.8;stroke-linecap:butt;stroke-linejoin:round;stroke-miterlimit:10;stroke-dasharray:none;stroke-opacity:1"
         id="path6504" /><g
         id="g6506"><g
           id="g6508"><path
             d="m 172,736 5,-1.665 v 3.33 z"
             style="fill:#8b0000;fill-opacity:1;fill-rule:evenodd;stroke:#8b0000;stroke-width:0.8;stroke-linecap:butt;stroke-linejoin:round;stroke-miterlimit:10;stroke-dasharray:none;stroke-opacity:1"
             id="path6510" /></g></g></g><g
       id="g6512"><path
         d="M 184,712 H 172"
         style="fill:none;stroke:#8b0000;stroke-width:0.8;stroke-linecap:butt;stroke-linejoin:round;stroke-miterlimit:10;stroke-dasharray:none;stroke-opacity:1"
         id="path6514" /><g
         id="g6516"><g
           id="g6518"><path
             d="m 172,712 5,-1.665 v 3.33 z"
             style="fill:#8b0000;fill-opacity:1;fill-rule:evenodd;stroke:#8b0000;stroke-width:0.8;stroke-linecap:butt;stroke-linejoin:round;stroke-miterlimit:10;stroke-dasharray:none;stroke-opacity:1"
             id="path6520" /></g></g></g><g
       id="g6522"><path
         d="M 36,796 V 660 h 244 v 136 z"
         style="fill:none;stroke:#ffffff;stroke-width:0.4;stroke-linecap:butt;stroke-linejoin:round;stroke-miterlimit:10;stroke-dasharray:none;stroke-opacity:1"
         id="path6524" /></g><g
       id="g6526"
       transform="translate(196,732.45)"><g
         id="g6528"><g
           id="g6530"
           clip-path="url(#clipPath6534)"><g
             id="g6536"
             transform="translate(0,-784.915)"><text
               transform="matrix(1,0,0,-1,0,786.465)"
               style="font-variant:normal;font-weight:normal;font-size:7.9701px;font-family:CMR8;-inkscape-font-specification:CMR8;writing-mode:lr-tb;fill:#8b0000;fill-opacity:1;fill-rule:nonzero;stroke:none"
               id="text6540"><tspan
                 x="0 2.3519764 4.7039528 9.4087029 13.878335 16.230312 20.935062"
                 y="0"
                 id="tspan6538">linking</tspan></text></g></g></g></g><g
       id="g6542"
       transform="translate(201.204,721.274)"><g
         id="g6544"><g
           id="g6546"
           clip-path="url(#clipPath6550)"><g
             id="g6552"
             transform="translate(0,-784.395)"><text
               transform="matrix(1,0,0,-1,0,786.554)"
               style="font-variant:normal;font-weight:normal;font-size:7.9701px;font-family:CMMI8;-inkscape-font-specification:CMMI8;writing-mode:lr-tb;fill:#2e8b57;fill-opacity:1;fill-rule:nonzero;stroke:none"
               id="text6556"><tspan
                 x="0"
                 y="0"
                 id="tspan6554">P</tspan></text><text
               transform="matrix(1,0,0,-1,5.369,785.557)"
               style="font-variant:normal;font-weight:normal;font-size:5.9776px;font-family:CMMI6;-inkscape-font-specification:CMMI6;writing-mode:lr-tb;fill:#2e8b57;fill-opacity:1;fill-rule:nonzero;stroke:none"
               id="text6560"><tspan
                 x="0"
                 y="0"
                 id="tspan6558">g</tspan></text></g></g></g></g><g
       id="g6562"
       transform="translate(199.912,711.121)"><g
         id="g6564"><g
           id="g6566"
           clip-path="url(#clipPath6570)"><g
             id="g6572"
             transform="translate(0,-784.395)"><text
               transform="matrix(1,0,0,-1,0,786.554)"
               style="font-variant:normal;font-weight:normal;font-size:7.9701px;font-family:CMMI8;-inkscape-font-specification:CMMI8;writing-mode:lr-tb;fill:#2e8b57;fill-opacity:1;fill-rule:nonzero;stroke:none"
               id="text6576"><tspan
                 x="0"
                 y="0"
                 id="tspan6574">Q</tspan></text><text
               transform="matrix(1,0,0,-1,6.661,785.557)"
               style="font-variant:normal;font-weight:normal;font-size:5.9776px;font-family:CMMI6;-inkscape-font-specification:CMMI6;writing-mode:lr-tb;fill:#2e8b57;fill-opacity:1;fill-rule:nonzero;stroke:none"
               id="text6580"><tspan
                 x="0"
                 y="0"
                 id="tspan6578">g</tspan></text></g></g></g></g><g
       id="g6582"
       transform="translate(213.204,723.434)"><g
         id="g6584"><g
           id="g6586"
           clip-path="url(#clipPath6590)"><g
             id="g6592"
             transform="translate(0,-788.987)"><text
               transform="matrix(1,0,0,-1,0,788.987)"
               style="font-variant:normal;font-weight:normal;font-size:7.9701px;font-family:CMR8;-inkscape-font-specification:CMR8;writing-mode:lr-tb;fill:#000000;fill-opacity:1;fill-rule:nonzero;stroke:none"
               id="text6596"><tspan
                 x="0"
                 y="0"
                 id="tspan6594">=</tspan></text></g></g></g></g><g
       id="g6598"
       transform="translate(213.204,713.281)"><g
         id="g6600"><g
           id="g6602"
           clip-path="url(#clipPath6606)"><g
             id="g6608"
             transform="translate(0,-788.987)"><text
               transform="matrix(1,0,0,-1,0,788.987)"
               style="font-variant:normal;font-weight:normal;font-size:7.9701px;font-family:CMR8;-inkscape-font-specification:CMR8;writing-mode:lr-tb;fill:#000000;fill-opacity:1;fill-rule:nonzero;stroke:none"
               id="text6612"><tspan
                 x="0"
                 y="0"
                 id="tspan6610">=</tspan></text></g></g></g></g><g
       id="g6614"
       transform="translate(221.204,722.604)"><g
         id="g6616"><g
           id="g6618"
           clip-path="url(#clipPath6622)"><g
             id="g6624"
             transform="translate(0,-786.354)"><text
               transform="matrix(1,0,0,-1,0,787.184)"
               style="font-variant:normal;font-weight:normal;font-size:7.9701px;font-family:CMSY8;-inkscape-font-specification:CMSY8;writing-mode:lr-tb;fill:#000000;fill-opacity:1;fill-rule:nonzero;stroke:none"
               id="text6628"><tspan
                 x="0"
                 y="0"
                 id="tspan6626">−</tspan></text></g></g></g></g><g
       id="g6630"
       transform="translate(229.204,711.731)"><g
         id="g6632"><g
           id="g6634"
           clip-path="url(#clipPath6638)"><g
             id="g6640"
             transform="translate(0,-785.004)"><text
               transform="matrix(1,0,0,-1,0,786.554)"
               style="font-variant:normal;font-weight:normal;font-size:7.9701px;font-family:CMMI8;-inkscape-font-specification:CMMI8;writing-mode:lr-tb;fill:#00008b;fill-opacity:1;fill-rule:nonzero;stroke:none"
               id="text6644"><tspan
                 x="0"
                 y="0"
                 id="tspan6642">Q</tspan></text><text
               transform="matrix(1,0,0,-1,6.661,785.557)"
               style="font-variant:normal;font-weight:normal;font-size:5.9776px;font-family:CMMI6;-inkscape-font-specification:CMMI6;writing-mode:lr-tb;fill:#00008b;fill-opacity:1;fill-rule:nonzero;stroke:none"
               id="text6648"><tspan
                 x="0"
                 y="0"
                 id="tspan6646">e</tspan></text></g></g></g></g><g
       id="g6650"
       transform="translate(229.204,722.444)"><g
         id="g6652"><g
           id="g6654"
           clip-path="url(#clipPath6658)"><g
             id="g6660"
             transform="translate(0,-785.557)"><text
               transform="matrix(1,0,0,-1,0,786.553)"
               style="font-variant:normal;font-weight:normal;font-size:7.9701px;font-family:CMMI8;-inkscape-font-specification:CMMI8;writing-mode:lr-tb;fill:#00008b;fill-opacity:1;fill-rule:nonzero;stroke:none"
               id="text6664"><tspan
                 x="0"
                 y="0"
                 id="tspan6662">P</tspan></text><text
               transform="matrix(1,0,0,-1,5.369,785.557)"
               style="font-variant:normal;font-weight:normal;font-size:5.9776px;font-family:CMMI6;-inkscape-font-specification:CMMI6;writing-mode:lr-tb;fill:#00008b;fill-opacity:1;fill-rule:nonzero;stroke:none"
               id="text6668"><tspan
                 x="0"
                 y="0"
                 id="tspan6666">e</tspan></text></g></g></g></g><g
       id="g6670"
       transform="translate(221.204,712.451)"><g
         id="g6672"><g
           id="g6674"
           clip-path="url(#clipPath6678)"><g
             id="g6680"
             transform="translate(0,-786.354)"><text
               transform="matrix(1,0,0,-1,0,787.184)"
               style="font-variant:normal;font-weight:normal;font-size:7.9701px;font-family:CMSY8;-inkscape-font-specification:CMSY8;writing-mode:lr-tb;fill:#000000;fill-opacity:1;fill-rule:nonzero;stroke:none"
               id="text6684"><tspan
                 x="0"
                 y="0"
                 id="tspan6682">−</tspan></text></g></g></g></g><g
       id="g6686"
       transform="translate(85.2945,755.563)"><g
         id="g6688"><g
           id="g6690"
           clip-path="url(#clipPath6694)"><g
             id="g6696"
             transform="translate(0,-786.465)"><text
               transform="matrix(1,0,0,-1,0,786.465)"
               style="font-variant:normal;font-weight:normal;font-size:7.9701px;font-family:CMR8;-inkscape-font-specification:CMR8;writing-mode:lr-tb;fill:#000000;fill-opacity:1;fill-rule:nonzero;stroke:none"
               id="text6700"><tspan
                 x="0 4.7047501 8.4682312 11.530344 17.407495 21.64201 24.942429"
                 y="0"
                 id="tspan6698">network</tspan></text></g></g></g></g><g
       id="g6702"
       transform="translate(81.6485,761.542)"><g
         id="g6704"><g
           id="g6706"
           clip-path="url(#clipPath6710)"><g
             id="g6712"
             transform="translate(0,-785.105)"><text
               transform="matrix(1,0,0,-1,0,786.655)"
               style="font-variant:normal;font-weight:normal;font-size:7.9701px;font-family:CMR8;-inkscape-font-specification:CMR8;writing-mode:lr-tb;fill:#000000;fill-opacity:1;fill-rule:nonzero;stroke:none"
               id="text6716"><tspan
                 x="0 3.3004184 7.0638995 14.120626 18.355141 20.707117 25.411867 27.763844 32.468594"
                 y="0"
                 id="tspan6714">remaining</tspan></text></g></g></g></g></g></svg>
