<?xml version="1.0" encoding="UTF-8" standalone="no"?>
<svg
   xmlns:dc="http://purl.org/dc/elements/1.1/"
   xmlns:cc="http://creativecommons.org/ns#"
   xmlns:rdf="http://www.w3.org/1999/02/22-rdf-syntax-ns#"
   xmlns:svg="http://www.w3.org/2000/svg"
   xmlns="http://www.w3.org/2000/svg"
   viewBox="0 0 232.97 139.25999"
   height="139.25999"
   width="232.97"
   xml:space="preserve"
   version="1.1"
   id="svg2"><metadata
     id="metadata8"><rdf:RDF><cc:Work
         rdf:about=""><dc:format>image/svg+xml</dc:format><dc:type
           rdf:resource="http://purl.org/dc/dcmitype/StillImage" /></cc:Work></rdf:RDF></metadata><defs
     id="defs6"><clipPath
       id="clipPath12"
       clipPathUnits="userSpaceOnUse"><path
         id="path14"
         d="M 0,0 595,0 595,842 0,842 0,0 Z" /></clipPath><clipPath
       id="clipPath46"
       clipPathUnits="userSpaceOnUse"><path
         id="path48"
         d="m -1,-1 105.545,0 0,11.963 L -1,10.963 -1,-1 Z" /></clipPath><clipPath
       id="clipPath94"
       clipPathUnits="userSpaceOnUse"><path
         id="path96"
         d="m -1,-1 6.981,0 0,8.42 L -1,7.42 -1,-1 Z" /></clipPath><clipPath
       id="clipPath110"
       clipPathUnits="userSpaceOnUse"><path
         id="path112"
         d="m -1,-1 6.981,0 0,8.42 L -1,7.42 -1,-1 Z" /></clipPath><clipPath
       id="clipPath146"
       clipPathUnits="userSpaceOnUse"><path
         id="path148"
         d="m -1,-1 6.981,0 0,8.42 L -1,7.42 -1,-1 Z" /></clipPath><clipPath
       id="clipPath162"
       clipPathUnits="userSpaceOnUse"><path
         id="path164"
         d="m -1,-1 6.981,0 0,8.42 L -1,7.42 -1,-1 Z" /></clipPath><clipPath
       id="clipPath178"
       clipPathUnits="userSpaceOnUse"><path
         id="path180"
         d="m -1,-1 17.497,0 0,8.918 L -1,7.918 -1,-1 Z" /></clipPath><clipPath
       id="clipPath218"
       clipPathUnits="userSpaceOnUse"><path
         id="path220"
         d="m -1,-1 6.981,0 0,6.289 L -1,5.289 -1,-1 Z" /></clipPath><clipPath
       id="clipPath234"
       clipPathUnits="userSpaceOnUse"><path
         id="path236"
         d="m -1,-1 23.63,0 0,8.918 L -1,7.918 -1,-1 Z" /></clipPath><clipPath
       id="clipPath258"
       clipPathUnits="userSpaceOnUse"><path
         id="path260"
         d="m -1,-1 7.535,0 0,8.918 L -1,7.918 -1,-1 Z" /></clipPath><clipPath
       id="clipPath274"
       clipPathUnits="userSpaceOnUse"><path
         id="path276"
         d="m -1,-1 6.428,0 0,6.289 L -1,5.289 -1,-1 Z" /></clipPath><clipPath
       id="clipPath290"
       clipPathUnits="userSpaceOnUse"><path
         id="path292"
         d="m -1,-1 7.535,0 0,6.289 L -1,5.289 -1,-1 Z" /></clipPath><clipPath
       id="clipPath318"
       clipPathUnits="userSpaceOnUse"><path
         id="path320"
         d="m -1,-1 6.981,0 0,6.289 L -1,5.289 -1,-1 Z" /></clipPath><clipPath
       id="clipPath334"
       clipPathUnits="userSpaceOnUse"><path
         id="path336"
         d="m -1,-1 24.46,0 0,8.918 L -1,7.918 -1,-1 Z" /></clipPath><clipPath
       id="clipPath358"
       clipPathUnits="userSpaceOnUse"><path
         id="path360"
         d="m -1,-1 7.535,0 0,6.289 L -1,5.289 -1,-1 Z" /></clipPath><clipPath
       id="clipPath374"
       clipPathUnits="userSpaceOnUse"><path
         id="path376"
         d="m -1,-1 106.376,0 0,11.963 L -1,10.963 -1,-1 Z" /></clipPath></defs><g
     clip-path="url(#clipPath12)"
     transform="matrix(1.25,0,0,-1.25,-278.75,834.8975)"
     id="g10"><g
       id="g16"><path
         id="path18"
         style="fill:none;stroke:#00008b;stroke-width:0.40000001;stroke-linecap:butt;stroke-linejoin:round;stroke-miterlimit:10;stroke-dasharray:none;stroke-opacity:1"
         d="m 384,652 0,-36 8,0 0,36 -8,0 z" /></g><g
       id="g20"><path
         id="path22"
         style="fill:none;stroke:#00008b;stroke-width:0.40000001;stroke-linecap:butt;stroke-linejoin:round;stroke-miterlimit:10;stroke-dasharray:none;stroke-opacity:1"
         d="m 236,652 0,-76 8,0 0,76 -8,0 z" /></g><g
       id="g24"><path
         id="path26"
         style="fill:none;stroke:#a9a9a9;stroke-width:0.40000001;stroke-linecap:butt;stroke-linejoin:round;stroke-miterlimit:10;stroke-dasharray:none;stroke-opacity:1"
         d="m 340,624 48,0" /></g><g
       id="g28"><path
         id="path30"
         style="fill:none;stroke:#a9a9a9;stroke-width:0.40000001;stroke-linecap:butt;stroke-linejoin:round;stroke-miterlimit:10;stroke-dasharray:none;stroke-opacity:1"
         d="m 340,644 48,0" /></g><g
       id="g32"><path
         id="path34"
         style="fill:none;stroke:#a9a9a9;stroke-width:0.40000001;stroke-linecap:butt;stroke-linejoin:round;stroke-miterlimit:10;stroke-dasharray:none;stroke-opacity:1"
         d="m 284,624 -20,0 -12,-40 -12,0" /></g><g
       id="g36"><path
         id="path38"
         style="fill:none;stroke:#a9a9a9;stroke-width:0.40000001;stroke-linecap:butt;stroke-linejoin:round;stroke-miterlimit:10;stroke-dasharray:none;stroke-opacity:1"
         d="m 284,644 -44,0" /></g><g
       transform="translate(224,557.51)"
       id="g40"><g
         id="g42"><g
           clip-path="url(#clipPath46)"
           id="g44"><g
             transform="translate(0,-782.037)"
             id="g50"><text
               id="text52"
               style="font-variant:normal;font-weight:normal;font-size:9.96259975px;font-family:CMR10;-inkscape-font-specification:CMR10;writing-mode:lr-tb;fill:#000000;fill-opacity:1;fill-rule:nonzero;stroke:none"
               transform="matrix(1,0,0,-1,0,784.528)"><tspan
                 id="tspan54"
                 y="0"
                 x="0">f</tspan></text>
<g
               transform="translate(3.642,784.727)"
               id="g56"><path
                 id="path58"
                 style="fill:none;stroke:#000000;stroke-width:0.398;stroke-linecap:butt;stroke-linejoin:round;stroke-miterlimit:10;stroke-dasharray:none;stroke-opacity:1"
                 d="M 0,0 2.989,0" /></g><text
               id="text60"
               style="font-variant:normal;font-weight:normal;font-size:9.96259975px;font-family:CMR10;-inkscape-font-specification:CMR10;writing-mode:lr-tb;fill:#000000;fill-opacity:1;fill-rule:nonzero;stroke:none"
               transform="matrix(1,0,0,-1,6.631,784.528)"><tspan
                 id="tspan62"
                 y="0"
                 x="0 4.4273796 9.408679 14.9439 20.47912 24.9065 29.333879 33.208336 35.975945 40.957245 46.492466 50.421715 58.170624 60.938236 65.919533 70.900833 75.882133 78.649742 83.631042 89.166267 94.147568">connections=[“a”,“n”]</tspan></text>
</g></g></g></g><g
       id="g64"><path
         id="path66"
         style="fill:#d3d3d3;fill-opacity:1;fill-rule:evenodd;stroke:#000000;stroke-width:0.40000001;stroke-linecap:butt;stroke-linejoin:round;stroke-miterlimit:10;stroke-dasharray:none;stroke-opacity:1"
         d="m 292,648 0,-28 40,0 0,28 -40,0 z" /></g><g
       id="g68"><path
         id="path70"
         style="fill:none;stroke:#000000;stroke-width:0.40000001;stroke-linecap:butt;stroke-linejoin:round;stroke-miterlimit:10;stroke-dasharray:none;stroke-opacity:1"
         d="m 292,644 -8,0" /></g><g
       id="g72"><path
         id="path74"
         style="fill:none;stroke:#000000;stroke-width:0.40000001;stroke-linecap:butt;stroke-linejoin:round;stroke-miterlimit:10;stroke-dasharray:none;stroke-opacity:1"
         d="m 292,624 -8,0" /></g><g
       id="g76"><g
         id="g78"><path
           id="path80"
           style="fill:#000000;fill-opacity:1;fill-rule:evenodd;stroke:none"
           d="m 285.8,644 c 0,0.994 -0.806,1.8 -1.8,1.8 -0.994,0 -1.8,-0.806 -1.8,-1.8 0,-0.994 0.806,-1.8 1.8,-1.8 0.994,0 1.8,0.806 1.8,1.8" /></g></g><g
       id="g82"><g
         id="g84"><path
           id="path86"
           style="fill:#000000;fill-opacity:1;fill-rule:evenodd;stroke:none"
           d="m 285.8,624 c 0,0.994 -0.806,1.8 -1.8,1.8 -0.994,0 -1.8,-0.806 -1.8,-1.8 0,-0.994 0.806,-1.8 1.8,-1.8 0.994,0 1.8,0.806 1.8,1.8" /></g></g><g
       transform="translate(272,640.79)"
       id="g88"><g
         id="g90"><g
           clip-path="url(#clipPath94)"
           id="g92"><g
             transform="translate(0,-785.58)"
             id="g98"><text
               id="text100"
               style="font-variant:normal;font-weight:normal;font-size:9.96259975px;font-family:CMR10;-inkscape-font-specification:CMR10;writing-mode:lr-tb;fill:#000000;fill-opacity:1;fill-rule:nonzero;stroke:none"
               transform="matrix(1,0,0,-1,0,785.58)"><tspan
                 id="tspan102"
                 y="0"
                 x="0">1</tspan></text>
</g></g></g></g><g
       transform="translate(272,620.79)"
       id="g104"><g
         id="g106"><g
           clip-path="url(#clipPath110)"
           id="g108"><g
             transform="translate(0,-785.58)"
             id="g114"><text
               id="text116"
               style="font-variant:normal;font-weight:normal;font-size:9.96259975px;font-family:CMR10;-inkscape-font-specification:CMR10;writing-mode:lr-tb;fill:#000000;fill-opacity:1;fill-rule:nonzero;stroke:none"
               transform="matrix(1,0,0,-1,0,785.58)"><tspan
                 id="tspan118"
                 y="0"
                 x="0">2</tspan></text>
</g></g></g></g><g
       id="g120"><path
         id="path122"
         style="fill:none;stroke:#000000;stroke-width:0.40000001;stroke-linecap:butt;stroke-linejoin:round;stroke-miterlimit:10;stroke-dasharray:none;stroke-opacity:1"
         d="m 340,644 -8,0" /></g><g
       id="g124"><path
         id="path126"
         style="fill:none;stroke:#000000;stroke-width:0.40000001;stroke-linecap:butt;stroke-linejoin:round;stroke-miterlimit:10;stroke-dasharray:none;stroke-opacity:1"
         d="m 340,624 -8,0" /></g><g
       id="g128"><g
         id="g130"><path
           id="path132"
           style="fill:#000000;fill-opacity:1;fill-rule:evenodd;stroke:none"
           d="m 341.8,644 c 0,0.994 -0.806,1.8 -1.8,1.8 -0.994,0 -1.8,-0.806 -1.8,-1.8 0,-0.994 0.806,-1.8 1.8,-1.8 0.994,0 1.8,0.806 1.8,1.8" /></g></g><g
       id="g134"><g
         id="g136"><path
           id="path138"
           style="fill:#000000;fill-opacity:1;fill-rule:evenodd;stroke:none"
           d="m 341.8,624 c 0,0.994 -0.806,1.8 -1.8,1.8 -0.994,0 -1.8,-0.806 -1.8,-1.8 0,-0.994 0.806,-1.8 1.8,-1.8 0.994,0 1.8,0.806 1.8,1.8" /></g></g><g
       transform="translate(348,640.79)"
       id="g140"><g
         id="g142"><g
           clip-path="url(#clipPath146)"
           id="g144"><g
             transform="translate(0,-785.58)"
             id="g150"><text
               id="text152"
               style="font-variant:normal;font-weight:normal;font-size:9.96259975px;font-family:CMR10;-inkscape-font-specification:CMR10;writing-mode:lr-tb;fill:#000000;fill-opacity:1;fill-rule:nonzero;stroke:none"
               transform="matrix(1,0,0,-1,0,785.58)"><tspan
                 id="tspan154"
                 y="0"
                 x="0">1</tspan></text>
</g></g></g></g><g
       transform="translate(348,620.79)"
       id="g156"><g
         id="g158"><g
           clip-path="url(#clipPath162)"
           id="g160"><g
             transform="translate(0,-785.58)"
             id="g166"><text
               id="text168"
               style="font-variant:normal;font-weight:normal;font-size:9.96259975px;font-family:CMR10;-inkscape-font-specification:CMR10;writing-mode:lr-tb;fill:#000000;fill-opacity:1;fill-rule:nonzero;stroke:none"
               transform="matrix(1,0,0,-1,0,785.58)"><tspan
                 id="tspan170"
                 y="0"
                 x="0">2</tspan></text>
</g></g></g></g><g
       transform="translate(304.251,660)"
       id="g172"><g
         id="g174"><g
           clip-path="url(#clipPath178)"
           id="g176"><g
             transform="translate(0,-785.081)"
             id="g182"><text
               id="text184"
               style="font-variant:normal;font-weight:normal;font-size:9.96259975px;font-family:CMR10;-inkscape-font-specification:CMR10;writing-mode:lr-tb;fill:#000000;fill-opacity:1;fill-rule:nonzero;stroke:none"
               transform="matrix(1,0,0,-1,0,785.081)"><tspan
                 id="tspan186"
                 y="0"
                 x="0 2.7676103 5.5352206 11.070441">line</tspan></text>
</g></g></g></g><g
       id="g188"><g
         id="g190"><path
           id="path192"
           style="fill:#00008b;fill-opacity:1;fill-rule:evenodd;stroke:none"
           d="m 241.8,644 c 0,0.994 -0.806,1.8 -1.8,1.8 -0.994,0 -1.8,-0.806 -1.8,-1.8 0,-0.994 0.806,-1.8 1.8,-1.8 0.994,0 1.8,0.806 1.8,1.8" /></g></g><g
       id="g194"><g
         id="g196"><path
           id="path198"
           style="fill:#00008b;fill-opacity:1;fill-rule:evenodd;stroke:none"
           d="m 241.8,624 c 0,0.994 -0.806,1.8 -1.8,1.8 -0.994,0 -1.8,-0.806 -1.8,-1.8 0,-0.994 0.806,-1.8 1.8,-1.8 0.994,0 1.8,0.806 1.8,1.8" /></g></g><g
       id="g200"><g
         id="g202"><path
           id="path204"
           style="fill:#00008b;fill-opacity:1;fill-rule:evenodd;stroke:none"
           d="m 241.8,604 c 0,0.994 -0.806,1.8 -1.8,1.8 -0.994,0 -1.8,-0.806 -1.8,-1.8 0,-0.994 0.806,-1.8 1.8,-1.8 0.994,0 1.8,0.806 1.8,1.8" /></g></g><g
       id="g206"><g
         id="g208"><path
           id="path210"
           style="fill:#00008b;fill-opacity:1;fill-rule:evenodd;stroke:none"
           d="m 241.8,584 c 0,0.994 -0.806,1.8 -1.8,1.8 -0.994,0 -1.8,-0.806 -1.8,-1.8 0,-0.994 0.806,-1.8 1.8,-1.8 0.994,0 1.8,0.806 1.8,1.8" /></g></g><g
       transform="translate(224,641.856)"
       id="g212"><g
         id="g214"><g
           clip-path="url(#clipPath218)"
           id="g216"><g
             transform="translate(0,-787.711)"
             id="g222"><text
               id="text224"
               style="font-variant:normal;font-weight:normal;font-size:9.96259975px;font-family:CMR10;-inkscape-font-specification:CMR10;writing-mode:lr-tb;fill:#00008b;fill-opacity:1;fill-rule:nonzero;stroke:none"
               transform="matrix(1,0,0,-1,0,787.711)"><tspan
                 id="tspan226"
                 y="0"
                 x="0">a</tspan></text>
</g></g></g></g><g
       transform="translate(229.185,660)"
       id="g228"><g
         id="g230"><g
           clip-path="url(#clipPath234)"
           id="g232"><g
             transform="translate(0,-785.081)"
             id="g238"><text
               id="text240"
               style="font-variant:normal;font-weight:normal;font-size:9.96259975px;font-family:CMR10;-inkscape-font-specification:CMR10;writing-mode:lr-tb;fill:#00008b;fill-opacity:1;fill-rule:nonzero;stroke:none"
               transform="matrix(1,0,0,-1,0,785.081)"><tspan
                 id="tspan242"
                 y="0"
                 x="0">f</tspan></text>
<g
               transform="translate(3.642,785.28)"
               id="g244"><path
                 id="path246"
                 style="fill:none;stroke:#00008b;stroke-width:0.398;stroke-linecap:butt;stroke-linejoin:round;stroke-miterlimit:10;stroke-dasharray:none;stroke-opacity:1"
                 d="M 0,0 2.989,0" /></g><text
               id="text248"
               style="font-variant:normal;font-weight:normal;font-size:9.96259975px;font-family:CMR10;-inkscape-font-specification:CMR10;writing-mode:lr-tb;fill:#00008b;fill-opacity:1;fill-rule:nonzero;stroke:none"
               transform="matrix(1,0,0,-1,6.631,785.081)"><tspan
                 id="tspan250"
                 y="0"
                 x="0 5.5352206 11.070441">bus</tspan></text>
</g></g></g></g><g
       transform="translate(224,620.541)"
       id="g252"><g
         id="g254"><g
           clip-path="url(#clipPath258)"
           id="g256"><g
             transform="translate(0,-785.081)"
             id="g262"><text
               id="text264"
               style="font-variant:normal;font-weight:normal;font-size:9.96259975px;font-family:CMR10;-inkscape-font-specification:CMR10;writing-mode:lr-tb;fill:#00008b;fill-opacity:1;fill-rule:nonzero;stroke:none"
               transform="matrix(1,0,0,-1,0,785.081)"><tspan
                 id="tspan266"
                 y="0"
                 x="0">b</tspan></text>
</g></g></g></g><g
       transform="translate(224,601.856)"
       id="g268"><g
         id="g270"><g
           clip-path="url(#clipPath274)"
           id="g272"><g
             transform="translate(0,-787.711)"
             id="g278"><text
               id="text280"
               style="font-variant:normal;font-weight:normal;font-size:9.96259975px;font-family:CMR10;-inkscape-font-specification:CMR10;writing-mode:lr-tb;fill:#00008b;fill-opacity:1;fill-rule:nonzero;stroke:none"
               transform="matrix(1,0,0,-1,0,787.711)"><tspan
                 id="tspan282"
                 y="0"
                 x="0">c</tspan></text>
</g></g></g></g><g
       transform="translate(224,581.856)"
       id="g284"><g
         id="g286"><g
           clip-path="url(#clipPath290)"
           id="g288"><g
             transform="translate(0,-787.711)"
             id="g294"><text
               id="text296"
               style="font-variant:normal;font-weight:normal;font-size:9.96259975px;font-family:CMR10;-inkscape-font-specification:CMR10;writing-mode:lr-tb;fill:#00008b;fill-opacity:1;fill-rule:nonzero;stroke:none"
               transform="matrix(1,0,0,-1,0,787.711)"><tspan
                 id="tspan298"
                 y="0"
                 x="0">n</tspan></text>
</g></g></g></g><g
       id="g300"><g
         id="g302"><path
           id="path304"
           style="fill:#00008b;fill-opacity:1;fill-rule:evenodd;stroke:none"
           d="m 389.8,644 c 0,0.994 -0.806,1.8 -1.8,1.8 -0.994,0 -1.8,-0.806 -1.8,-1.8 0,-0.994 0.806,-1.8 1.8,-1.8 0.994,0 1.8,0.806 1.8,1.8" /></g></g><g
       id="g306"><g
         id="g308"><path
           id="path310"
           style="fill:#00008b;fill-opacity:1;fill-rule:evenodd;stroke:none"
           d="m 389.8,624 c 0,0.994 -0.806,1.8 -1.8,1.8 -0.994,0 -1.8,-0.806 -1.8,-1.8 0,-0.994 0.806,-1.8 1.8,-1.8 0.994,0 1.8,0.806 1.8,1.8" /></g></g><g
       transform="translate(400,641.856)"
       id="g312"><g
         id="g314"><g
           clip-path="url(#clipPath318)"
           id="g316"><g
             transform="translate(0,-787.711)"
             id="g322"><text
               id="text324"
               style="font-variant:normal;font-weight:normal;font-size:9.96259975px;font-family:CMR10;-inkscape-font-specification:CMR10;writing-mode:lr-tb;fill:#00008b;fill-opacity:1;fill-rule:nonzero;stroke:none"
               transform="matrix(1,0,0,-1,0,787.711)"><tspan
                 id="tspan326"
                 y="0"
                 x="0">a</tspan></text>
</g></g></g></g><g
       transform="translate(377.185,660)"
       id="g328"><g
         id="g330"><g
           clip-path="url(#clipPath334)"
           id="g332"><g
             transform="translate(0,-785.081)"
             id="g338"><text
               id="text340"
               style="font-variant:normal;font-weight:normal;font-size:9.96259975px;font-family:CMR10;-inkscape-font-specification:CMR10;writing-mode:lr-tb;fill:#00008b;fill-opacity:1;fill-rule:nonzero;stroke:none"
               transform="matrix(1,0,0,-1,0,785.081)"><tspan
                 id="tspan342"
                 y="0"
                 x="0">t</tspan></text>
<g
               transform="translate(4.472,785.28)"
               id="g344"><path
                 id="path346"
                 style="fill:none;stroke:#00008b;stroke-width:0.398;stroke-linecap:butt;stroke-linejoin:round;stroke-miterlimit:10;stroke-dasharray:none;stroke-opacity:1"
                 d="M 0,0 2.989,0" /></g><text
               id="text348"
               style="font-variant:normal;font-weight:normal;font-size:9.96259975px;font-family:CMR10;-inkscape-font-specification:CMR10;writing-mode:lr-tb;fill:#00008b;fill-opacity:1;fill-rule:nonzero;stroke:none"
               transform="matrix(1,0,0,-1,7.461,785.081)"><tspan
                 id="tspan350"
                 y="0"
                 x="0 5.5352206 11.070441">bus</tspan></text>
</g></g></g></g><g
       transform="translate(400,621.856)"
       id="g352"><g
         id="g354"><g
           clip-path="url(#clipPath358)"
           id="g356"><g
             transform="translate(0,-787.711)"
             id="g362"><text
               id="text364"
               style="font-variant:normal;font-weight:normal;font-size:9.96259975px;font-family:CMR10;-inkscape-font-specification:CMR10;writing-mode:lr-tb;fill:#00008b;fill-opacity:1;fill-rule:nonzero;stroke:none"
               transform="matrix(1,0,0,-1,0,787.711)"><tspan
                 id="tspan366"
                 y="0"
                 x="0">n</tspan></text>
</g></g></g></g><g
       transform="translate(304,597.51)"
       id="g368"><g
         id="g370"><g
           clip-path="url(#clipPath374)"
           id="g372"><g
             transform="translate(0,-782.037)"
             id="g378"><text
               id="text380"
               style="font-variant:normal;font-weight:normal;font-size:9.96259975px;font-family:CMR10;-inkscape-font-specification:CMR10;writing-mode:lr-tb;fill:#000000;fill-opacity:1;fill-rule:nonzero;stroke:none"
               transform="matrix(1,0,0,-1,0,784.528)"><tspan
                 id="tspan382"
                 y="0"
                 x="0">t</tspan></text>
<g
               transform="translate(4.472,784.727)"
               id="g384"><path
                 id="path386"
                 style="fill:none;stroke:#000000;stroke-width:0.398;stroke-linecap:butt;stroke-linejoin:round;stroke-miterlimit:10;stroke-dasharray:none;stroke-opacity:1"
                 d="M 0,0 2.989,0" /></g><text
               id="text388"
               style="font-variant:normal;font-weight:normal;font-size:9.96259975px;font-family:CMR10;-inkscape-font-specification:CMR10;writing-mode:lr-tb;fill:#000000;fill-opacity:1;fill-rule:nonzero;stroke:none"
               transform="matrix(1,0,0,-1,7.461,784.528)"><tspan
                 id="tspan390"
                 y="0"
                 x="0 4.4273796 9.408679 14.9439 20.47912 24.9065 29.333879 33.208336 35.975945 40.957245 46.492466 50.421715 58.170624 60.938236 65.919533 70.900833 75.882133 78.649742 83.631042 89.166267 94.147568">connections=[“a”,“n”]</tspan></text>
</g></g></g></g></g></svg>